<?xml version="1.0" encoding="UTF-8" standalone="no"?>
<!DOCTYPE svg PUBLIC "-//W3C//DTD SVG 1.1//EN" "http://www.w3.org/Graphics/SVG/1.1/DTD/svg11.dtd">
<svg xmlns="http://www.w3.org/2000/svg" xmlns:xlink="http://www.w3.org/1999/xlink" version="1.1" width="792pt" height="612pt" viewBox="0 0 792 612">
<g enable-background="new">
<path transform="matrix(.75,0,0,.75,0,0)" stroke-width=".16" stroke-linecap="butt" stroke-dasharray=".48,.16" stroke-miterlimit="10" stroke-linejoin="miter" fill="none" stroke="#000000" d="M 880.32 419.2 L 914.88 419.2 L 914.88 450.24 L 880.32 450.24 L 880.32 419.2 "/>
<path transform="matrix(.75,0,0,.75,0,0)" stroke-width=".16" stroke-linecap="butt" stroke-dasharray=".48,.16" stroke-miterlimit="10" stroke-linejoin="miter" fill="none" stroke="#000000" d="M 880.32 435.2 L 881.6 434.72 L 880.32 434.24 "/>
<text xml:space="preserve" transform="matrix(.75 0 0 .75 0 0)" font-size="1.92364" font-family="F1"><tspan y="435.36" x="881.92 883.03567 883.51657 884.6322 885.76718 886.8828 887.3637 888.4794 889.11996 890.2356 891.35128 892.4862">global_reset</tspan></text>
<text xml:space="preserve" transform="matrix(.75 0 0 .75 0 0)" font-size="1.76334" font-family="F1"><tspan y="434.24" x="876.32 877.2722 877.6089 878.5611">1'hx</tspan></text>
<path transform="matrix(.75,0,0,.75,0,0)" stroke-width=".16" stroke-linecap="butt" stroke-dasharray=".48,.16" stroke-miterlimit="10" stroke-linejoin="miter" fill="none" stroke="#000000" d="M 878.24 434.72 L 880.32 434.72 "/>
<text xml:space="preserve" transform="matrix(.75 0 0 .75 0 0)" font-size="1.92364" font-family="F1"><tspan y="423.2" x="893.44 894.4018 895.51748 896.158 896.8121 897.92776 899.0434 899.5243 900.63998 901.7556 902.89059 903.37149 904.4871 905.6028 906.0837 907.19937 908.315 909.44998 909.93087 911.0465 912.1622 912.64309 913.7587">current_data_to_display</tspan></text>
<text xml:space="preserve" transform="matrix(.75 0 0 .75 0 0)" font-size="1.76334" font-family="F1"><tspan y="422.08" x="915.68 916.6322 917.60208 917.91946 918.87167 919.8415 920.7937 921.76358">16'hxxxx</tspan></text>
<path transform="matrix(.75,0,0,.75,0,0)" stroke-width=".48" stroke-linecap="butt" stroke-dasharray="1.44,.48" stroke-miterlimit="10" stroke-linejoin="miter" fill="none" stroke="#000000" d="M 916.96 422.56 L 914.88 422.56 "/>
<text xml:space="preserve" transform="matrix(.75 0 0 .75 0 0)" font-size="1.92364" font-family="F1"><tspan y="426.72" x="909.76 910.8757 911.35659 912.4722 912.9531 913.434">digit0</tspan></text>
<text xml:space="preserve" transform="matrix(.75 0 0 .75 0 0)" font-size="1.76334" font-family="F1"><tspan y="425.6" x="915.68 916.6322 916.9689 917.9211">4'hx</tspan></text>
<path transform="matrix(.75,0,0,.75,0,0)" stroke-width=".48" stroke-linecap="butt" stroke-dasharray="1.44,.48" stroke-miterlimit="10" stroke-linejoin="miter" fill="none" stroke="#000000" d="M 916.96 426.08 L 914.88 426.08 "/>
<text xml:space="preserve" transform="matrix(.75 0 0 .75 0 0)" font-size="1.92364" font-family="F1"><tspan y="430.24" x="909.76 910.8757 911.35659 912.4722 912.9531 913.434">digit1</tspan></text>
<text xml:space="preserve" transform="matrix(.75 0 0 .75 0 0)" font-size="1.76334" font-family="F1"><tspan y="428.96" x="915.68 916.6322 916.9689 917.9211">4'hx</tspan></text>
<path transform="matrix(.75,0,0,.75,0,0)" stroke-width=".48" stroke-linecap="butt" stroke-dasharray="1.44,.48" stroke-miterlimit="10" stroke-linejoin="miter" fill="none" stroke="#000000" d="M 916.96 429.6 L 914.88 429.6 "/>
<text xml:space="preserve" transform="matrix(.75 0 0 .75 0 0)" font-size="1.92364" font-family="F1"><tspan y="433.6" x="909.76 910.8757 911.35659 912.4722 912.9531 913.434">digit2</tspan></text>
<text xml:space="preserve" transform="matrix(.75 0 0 .75 0 0)" font-size="1.76334" font-family="F1"><tspan y="432.48" x="915.68 916.6322 916.9689 917.9211">4'hx</tspan></text>
<path transform="matrix(.75,0,0,.75,0,0)" stroke-width=".48" stroke-linecap="butt" stroke-dasharray="1.44,.48" stroke-miterlimit="10" stroke-linejoin="miter" fill="none" stroke="#000000" d="M 916.96 432.96 L 914.88 432.96 "/>
<text xml:space="preserve" transform="matrix(.75 0 0 .75 0 0)" font-size="1.92364" font-family="F1"><tspan y="437.12" x="909.76 910.8757 911.35659 912.4722 912.9531 913.434">digit3</tspan></text>
<text xml:space="preserve" transform="matrix(.75 0 0 .75 0 0)" font-size="1.76334" font-family="F1"><tspan y="436" x="915.68 916.6322 916.9689 917.9211">4'hx</tspan></text>
<path transform="matrix(.75,0,0,.75,0,0)" stroke-width=".48" stroke-linecap="butt" stroke-dasharray="1.44,.48" stroke-miterlimit="10" stroke-linejoin="miter" fill="none" stroke="#000000" d="M 916.96 436.48 L 914.88 436.48 "/>
<text xml:space="preserve" transform="matrix(.75 0 0 .75 0 0)" font-size="1.92364" font-family="F1"><tspan y="440.48" x="891.2 892.3157 893.43136 894.5663 895.68197 896.16287 897.2785 898.39419 899.0482 900.1639 901.27957 902.3952 903.51089 904.6458 905.7615 906.87716 907.9928 909.12777 910.2434 911.513 912.16708 912.8076 913.9233">has_there_been_an_Error</tspan></text>
<text xml:space="preserve" transform="matrix(.75 0 0 .75 0 0)" font-size="1.76334" font-family="F1"><tspan y="439.36" x="915.68 916.6322 916.9689 917.9211">1'hx</tspan></text>
<path transform="matrix(.75,0,0,.75,0,0)" stroke-width=".16" stroke-linecap="butt" stroke-dasharray=".48,.16" stroke-miterlimit="10" stroke-linejoin="miter" fill="none" stroke="#000000" d="M 916.96 439.84 L 914.88 439.84 "/>
<text xml:space="preserve" transform="matrix(.75 0 0 .75 0 0)" font-size="1.92364" font-family="F1"><tspan y="444" x="902.4 903.68307 904.3236 904.9642 906.07986 906.7339 907.84957 908.33047 909.4461 910.56179 912.0045 913.28756">Error_in_MSB</tspan></text>
<text xml:space="preserve" transform="matrix(.75 0 0 .75 0 0)" font-size="1.76334" font-family="F1"><tspan y="442.88" x="915.68 916.6322 916.9689 917.9211">1'hx</tspan></text>
<path transform="matrix(.75,0,0,.75,0,0)" stroke-width=".16" stroke-linecap="butt" stroke-dasharray=".48,.16" stroke-miterlimit="10" stroke-linejoin="miter" fill="none" stroke="#000000" d="M 916.96 443.36 L 914.88 443.36 "/>
<text xml:space="preserve" transform="matrix(.75 0 0 .75 0 0)" font-size="1.92364" font-family="F1"><tspan y="447.52" x="910.56 912.00277 913.27236">MSB</tspan></text>
<text xml:space="preserve" transform="matrix(.75 0 0 .75 0 0)" font-size="1.76334" font-family="F1"><tspan y="446.24" x="915.68 916.6322 916.9689 917.9211">1'hx</tspan></text>
<text xml:space="preserve" transform="matrix(.75 0 0 .75 0 0)" font-size="2.24425" font-family="F1"><tspan y="418.72" x="889.92 891.1992 892.63558 893.9148 896.00198 897.4383 898.87466 900.311 901.5902 902.86947 904.1711">#ALWAYS#136</tspan></text>
<path transform="matrix(.75,0,0,.75,0,0)" stroke-width=".16" stroke-linecap="butt" stroke-dasharray=".48,.16" stroke-miterlimit="10" stroke-linejoin="miter" fill="none" stroke="#000000" d="M 916.96 446.88 L 914.88 446.88 "/>
<path transform="matrix(.75,0,0,.75,0,0)" stroke-width=".16" stroke-linecap="butt" stroke-dasharray=".48,.16" stroke-miterlimit="10" stroke-linejoin="miter" fill="none" stroke="#000000" d="M 979.04 403.52 L 989.44 403.52 L 989.44 445.12 L 979.04 445.12 L 979.04 403.52 "/>
<text xml:space="preserve" transform="matrix(.75 0 0 .75 0 0)" font-size="1.92364" font-family="F1"><tspan y="416.32" x="979.36 980.00057 981.1162 982.2319 983.3668">reset</tspan></text>
<text xml:space="preserve" transform="matrix(.75 0 0 .75 0 0)" font-size="1.76334" font-family="F1"><tspan y="415.2" x="975.04 975.9922 976.32888 977.28109">1'hx</tspan></text>
<path transform="matrix(.75,0,0,.75,0,0)" stroke-width=".16" stroke-linecap="butt" stroke-dasharray=".48,.16" stroke-miterlimit="10" stroke-linejoin="miter" fill="none" stroke="#000000" d="M 976.96 415.68 L 979.04 415.68 "/>
<text xml:space="preserve" transform="matrix(.75 0 0 .75 0 0)" font-size="1.92364" font-family="F1"><tspan y="419.84" x="979.36 980.3218 980.8027">clk</tspan></text>
<text xml:space="preserve" transform="matrix(.75 0 0 .75 0 0)" font-size="1.76334" font-family="F1"><tspan y="418.56" x="975.04 975.9922 976.32888 977.28109">1'hx</tspan></text>
<path transform="matrix(.75,0,0,.75,0,0)" stroke-width=".16" stroke-linecap="butt" stroke-dasharray=".48,.16" stroke-miterlimit="10" stroke-linejoin="miter" fill="none" stroke="#000000" d="M 976.96 419.2 L 979.04 419.2 "/>
<text xml:space="preserve" transform="matrix(.75 0 0 .75 0 0)" font-size="1.92364" font-family="F1"><tspan y="423.2" x="979.36 980.3218 981.43746 982.5531 983.20718">char3</tspan></text>
<text xml:space="preserve" transform="matrix(.75 0 0 .75 0 0)" font-size="1.76334" font-family="F1"><tspan y="422.08" x="975.04 975.9922 976.32888 977.28109">4'hx</tspan></text>
<path transform="matrix(.75,0,0,.75,0,0)" stroke-width=".48" stroke-linecap="butt" stroke-dasharray="1.44,.48" stroke-miterlimit="10" stroke-linejoin="miter" fill="none" stroke="#000000" d="M 976.96 422.56 L 979.04 422.56 "/>
<text xml:space="preserve" transform="matrix(.75 0 0 .75 0 0)" font-size="1.92364" font-family="F1"><tspan y="426.72" x="979.36 980.3218 981.43746 982.5531 983.20718">char2</tspan></text>
<text xml:space="preserve" transform="matrix(.75 0 0 .75 0 0)" font-size="1.76334" font-family="F1"><tspan y="425.6" x="975.04 975.9922 976.32888 977.28109">4'hx</tspan></text>
<path transform="matrix(.75,0,0,.75,0,0)" stroke-width=".48" stroke-linecap="butt" stroke-dasharray="1.44,.48" stroke-miterlimit="10" stroke-linejoin="miter" fill="none" stroke="#000000" d="M 976.96 426.08 L 979.04 426.08 "/>
<text xml:space="preserve" transform="matrix(.75 0 0 .75 0 0)" font-size="1.92364" font-family="F1"><tspan y="430.08" x="979.36 980.3218 981.43746 982.5531 983.20718">char1</tspan></text>
<text xml:space="preserve" transform="matrix(.75 0 0 .75 0 0)" font-size="1.76334" font-family="F1"><tspan y="428.96" x="975.04 975.9922 976.32888 977.28109">4'hx</tspan></text>
<path transform="matrix(.75,0,0,.75,0,0)" stroke-width=".48" stroke-linecap="butt" stroke-dasharray="1.44,.48" stroke-miterlimit="10" stroke-linejoin="miter" fill="none" stroke="#000000" d="M 976.96 429.6 L 979.04 429.6 "/>
<text xml:space="preserve" transform="matrix(.75 0 0 .75 0 0)" font-size="1.92364" font-family="F1"><tspan y="433.6" x="979.36 980.3218 981.43746 982.5531 983.20718">char0</tspan></text>
<text xml:space="preserve" transform="matrix(.75 0 0 .75 0 0)" font-size="1.76334" font-family="F1"><tspan y="432.48" x="975.04 975.9922 976.32888 977.28109">4'hx</tspan></text>
<path transform="matrix(.75,0,0,.75,0,0)" stroke-width=".48" stroke-linecap="butt" stroke-dasharray="1.44,.48" stroke-miterlimit="10" stroke-linejoin="miter" fill="none" stroke="#000000" d="M 976.96 432.96 L 979.04 432.96 "/>
<text xml:space="preserve" transform="matrix(.75 0 0 .75 0 0)" font-size="1.92364" font-family="F1"><tspan y="407.68" x="985.76 986.8757 987.99136">an3</tspan></text>
<text xml:space="preserve" transform="matrix(.75 0 0 .75 0 0)" font-size="1.76334" font-family="F1"><tspan y="406.56" x="990.24 991.1922 991.5289 992.4811">1'hx</tspan></text>
<path transform="matrix(.75,0,0,.75,0,0)" stroke-width=".16" stroke-linecap="butt" stroke-dasharray=".48,.16" stroke-miterlimit="10" stroke-linejoin="miter" fill="none" stroke="#000000" d="M 991.52 407.04 L 989.44 407.04 "/>
<text xml:space="preserve" transform="matrix(.75 0 0 .75 0 0)" font-size="1.92364" font-family="F1"><tspan y="411.2" x="985.76 986.8757 987.99136">an2</tspan></text>
<text xml:space="preserve" transform="matrix(.75 0 0 .75 0 0)" font-size="1.76334" font-family="F1"><tspan y="409.92" x="990.24 991.1922 991.5289 992.4811">1'hx</tspan></text>
<path transform="matrix(.75,0,0,.75,0,0)" stroke-width=".16" stroke-linecap="butt" stroke-dasharray=".48,.16" stroke-miterlimit="10" stroke-linejoin="miter" fill="none" stroke="#000000" d="M 991.52 410.56 L 989.44 410.56 "/>
<text xml:space="preserve" transform="matrix(.75 0 0 .75 0 0)" font-size="1.92364" font-family="F1"><tspan y="414.56" x="985.76 986.8757 987.99136">an1</tspan></text>
<text xml:space="preserve" transform="matrix(.75 0 0 .75 0 0)" font-size="1.76334" font-family="F1"><tspan y="413.44" x="990.24 991.1922 991.5289 992.4811">1'hx</tspan></text>
<path transform="matrix(.75,0,0,.75,0,0)" stroke-width=".16" stroke-linecap="butt" stroke-dasharray=".48,.16" stroke-miterlimit="10" stroke-linejoin="miter" fill="none" stroke="#000000" d="M 991.52 413.92 L 989.44 413.92 "/>
<text xml:space="preserve" transform="matrix(.75 0 0 .75 0 0)" font-size="1.92364" font-family="F1"><tspan y="418.08" x="985.76 986.8757 987.99136">an0</tspan></text>
<text xml:space="preserve" transform="matrix(.75 0 0 .75 0 0)" font-size="1.76334" font-family="F1"><tspan y="416.96" x="990.24 991.1922 991.5289 992.4811">1'hx</tspan></text>
<path transform="matrix(.75,0,0,.75,0,0)" stroke-width=".16" stroke-linecap="butt" stroke-dasharray=".48,.16" stroke-miterlimit="10" stroke-linejoin="miter" fill="none" stroke="#000000" d="M 991.52 417.44 L 989.44 417.44 "/>
<text xml:space="preserve" transform="matrix(.75 0 0 .75 0 0)" font-size="1.92364" font-family="F1"><tspan y="421.44" x="988">a</tspan></text>
<text xml:space="preserve" transform="matrix(.75 0 0 .75 0 0)" font-size="1.76334" font-family="F1"><tspan y="420.32" x="990.24 991.1922 991.5289 992.4811">1'hx</tspan></text>
<path transform="matrix(.75,0,0,.75,0,0)" stroke-width=".16" stroke-linecap="butt" stroke-dasharray=".48,.16" stroke-miterlimit="10" stroke-linejoin="miter" fill="none" stroke="#000000" d="M 991.52 420.96 L 989.44 420.96 "/>
<text xml:space="preserve" transform="matrix(.75 0 0 .75 0 0)" font-size="1.92364" font-family="F1"><tspan y="424.96" x="988">b</tspan></text>
<text xml:space="preserve" transform="matrix(.75 0 0 .75 0 0)" font-size="1.76334" font-family="F1"><tspan y="423.84" x="990.24 991.1922 991.5289 992.4811">1'hx</tspan></text>
<path transform="matrix(.75,0,0,.75,0,0)" stroke-width=".16" stroke-linecap="butt" stroke-dasharray=".48,.16" stroke-miterlimit="10" stroke-linejoin="miter" fill="none" stroke="#000000" d="M 991.52 424.32 L 989.44 424.32 "/>
<text xml:space="preserve" transform="matrix(.75 0 0 .75 0 0)" font-size="1.92364" font-family="F1"><tspan y="428.48" x="988.16">c</tspan></text>
<text xml:space="preserve" transform="matrix(.75 0 0 .75 0 0)" font-size="1.76334" font-family="F1"><tspan y="427.2" x="990.24 991.1922 991.5289 992.4811">1'hx</tspan></text>
<path transform="matrix(.75,0,0,.75,0,0)" stroke-width=".16" stroke-linecap="butt" stroke-dasharray=".48,.16" stroke-miterlimit="10" stroke-linejoin="miter" fill="none" stroke="#000000" d="M 991.52 427.84 L 989.44 427.84 "/>
<text xml:space="preserve" transform="matrix(.75 0 0 .75 0 0)" font-size="1.92364" font-family="F1"><tspan y="431.84" x="988">d</tspan></text>
<text xml:space="preserve" transform="matrix(.75 0 0 .75 0 0)" font-size="1.76334" font-family="F1"><tspan y="430.72" x="990.24 991.1922 991.5289 992.4811">1'hx</tspan></text>
<path transform="matrix(.75,0,0,.75,0,0)" stroke-width=".16" stroke-linecap="butt" stroke-dasharray=".48,.16" stroke-miterlimit="10" stroke-linejoin="miter" fill="none" stroke="#000000" d="M 991.52 431.2 L 989.44 431.2 "/>
<text xml:space="preserve" transform="matrix(.75 0 0 .75 0 0)" font-size="1.92364" font-family="F1"><tspan y="435.36" x="988">e</tspan></text>
<text xml:space="preserve" transform="matrix(.75 0 0 .75 0 0)" font-size="1.76334" font-family="F1"><tspan y="434.24" x="990.24 991.1922 991.5289 992.4811">1'hx</tspan></text>
<path transform="matrix(.75,0,0,.75,0,0)" stroke-width=".16" stroke-linecap="butt" stroke-dasharray=".48,.16" stroke-miterlimit="10" stroke-linejoin="miter" fill="none" stroke="#000000" d="M 991.52 434.72 L 989.44 434.72 "/>
<text xml:space="preserve" transform="matrix(.75 0 0 .75 0 0)" font-size="1.92364" font-family="F1"><tspan y="438.72" x="988.64">f</tspan></text>
<text xml:space="preserve" transform="matrix(.75 0 0 .75 0 0)" font-size="1.76334" font-family="F1"><tspan y="437.6" x="990.24 991.1922 991.5289 992.4811">1'hx</tspan></text>
<path transform="matrix(.75,0,0,.75,0,0)" stroke-width=".16" stroke-linecap="butt" stroke-dasharray=".48,.16" stroke-miterlimit="10" stroke-linejoin="miter" fill="none" stroke="#000000" d="M 991.52 438.24 L 989.44 438.24 "/>
<text xml:space="preserve" transform="matrix(.75 0 0 .75 0 0)" font-size="1.92364" font-family="F1"><tspan y="442.24" x="988">g</tspan></text>
<text xml:space="preserve" transform="matrix(.75 0 0 .75 0 0)" font-size="1.76334" font-family="F1"><tspan y="441.12" x="990.24 991.1922 991.5289 992.4811">1'hx</tspan></text>
<text xml:space="preserve" transform="matrix(.75 0 0 .75 0 0)" font-size="2.24425" font-family="F1"><tspan y="403.04" x="975.52 976.79928 978.0785 978.5498 979.82907 980.9512 981.602 982.8812 984.16049 984.9684 985.4397 986.5618 987.84109 988.649 989.9282 991.36459">object_driver_TB</tspan></text>
<path transform="matrix(.75,0,0,.75,0,0)" stroke-width=".16" stroke-linecap="butt" stroke-dasharray=".48,.16" stroke-miterlimit="10" stroke-linejoin="miter" fill="none" stroke="#000000" d="M 991.52 441.6 L 989.44 441.6 "/>
<path transform="matrix(.75,0,0,.75,0,0)" stroke-width=".16" stroke-linecap="butt" stroke-dasharray=".48,.16" stroke-miterlimit="10" stroke-linejoin="miter" fill="none" stroke="#000000" d="M 522.88 384.64 L 545.92 384.64 L 545.92 405.44 L 522.88 405.44 L 522.88 384.64 "/>
<text xml:space="preserve" transform="matrix(.75 0 0 .75 0 0)" font-size="1.92364" font-family="F1"><tspan y="388.8" x="523.2 523.8406 524.95626 526.0719 527.20687">reset</tspan></text>
<text xml:space="preserve" transform="matrix(.75 0 0 .75 0 0)" font-size="1.76334" font-family="F1"><tspan y="387.68" x="518.88 519.8322 520.1689 521.1211">1'hx</tspan></text>
<path transform="matrix(.75,0,0,.75,0,0)" stroke-width=".16" stroke-linecap="butt" stroke-dasharray=".48,.16" stroke-miterlimit="10" stroke-linejoin="miter" fill="none" stroke="#000000" d="M 520.8 388 L 522.88 388 "/>
<text xml:space="preserve" transform="matrix(.75 0 0 .75 0 0)" font-size="1.92364" font-family="F1"><tspan y="392.16" x="523.2 524.1618 524.6427">clk</tspan></text>
<text xml:space="preserve" transform="matrix(.75 0 0 .75 0 0)" font-size="1.76334" font-family="F1"><tspan y="391.04" x="518.88 519.8322 520.1689 521.1211">1'hx</tspan></text>
<path transform="matrix(.75,0,0,.75,0,0)" stroke-width=".16" stroke-linecap="butt" stroke-dasharray=".48,.16" stroke-miterlimit="10" stroke-linejoin="miter" fill="none" stroke="#000000" d="M 520.8 391.52 L 522.88 391.52 "/>
<text xml:space="preserve" transform="matrix(.75 0 0 .75 0 0)" font-size="1.92364" font-family="F1"><tspan y="395.68" x="523.2 524.3157 525.43136 526.5663 527.68197 528.7976 529.91329 531.0482 531.5291 532.6448 533.60659">baud_select</tspan></text>
<text xml:space="preserve" transform="matrix(.75 0 0 .75 0 0)" font-size="1.76334" font-family="F1"><tspan y="394.56" x="518.88 519.8322 520.1689 521.1211">3'hx</tspan></text>
<path transform="matrix(.75,0,0,.75,0,0)" stroke-width=".48" stroke-linecap="butt" stroke-dasharray="1.44,.48" stroke-miterlimit="10" stroke-linejoin="miter" fill="none" stroke="#000000" d="M 520.8 395.04 L 522.88 395.04 "/>
<text xml:space="preserve" transform="matrix(.75 0 0 .75 0 0)" font-size="1.92364" font-family="F1"><tspan y="399.2" x="523.2 524.6427 525.43136 526.5663 527.8359">Rx_EN</tspan></text>
<text xml:space="preserve" transform="matrix(.75 0 0 .75 0 0)" font-size="1.76334" font-family="F1"><tspan y="397.92" x="518.88 519.8322 520.1689 521.1211">1'hx</tspan></text>
<path transform="matrix(.75,0,0,.75,0,0)" stroke-width=".16" stroke-linecap="butt" stroke-dasharray=".48,.16" stroke-miterlimit="10" stroke-linejoin="miter" fill="none" stroke="#000000" d="M 520.8 398.4 L 522.88 398.4 "/>
<text xml:space="preserve" transform="matrix(.75 0 0 .75 0 0)" font-size="1.92364" font-family="F1"><tspan y="402.56" x="523.2 524.6427 525.43136 526.5663">Rx_D</tspan></text>
<text xml:space="preserve" transform="matrix(.75 0 0 .75 0 0)" font-size="1.76334" font-family="F1"><tspan y="401.44" x="518.88 519.8322 520.1689 521.1211">1'hx</tspan></text>
<path transform="matrix(.75,0,0,.75,0,0)" stroke-width=".16" stroke-linecap="butt" stroke-dasharray=".48,.16" stroke-miterlimit="10" stroke-linejoin="miter" fill="none" stroke="#000000" d="M 520.8 401.92 L 522.88 401.92 "/>
<text xml:space="preserve" transform="matrix(.75 0 0 .75 0 0)" font-size="1.92364" font-family="F1"><tspan y="390.56" x="537.44 538.8827 539.6713 540.8063 542.24899 543.3647 544.48037">Rx_DATA</tspan></text>
<text xml:space="preserve" transform="matrix(.75 0 0 .75 0 0)" font-size="1.76334" font-family="F1"><tspan y="389.28" x="546.72 547.6722 548.00888 548.96109 549.91329">8'hxx</tspan></text>
<path transform="matrix(.75,0,0,.75,0,0)" stroke-width=".48" stroke-linecap="butt" stroke-dasharray="1.44,.48" stroke-miterlimit="10" stroke-linejoin="miter" fill="none" stroke="#000000" d="M 548 389.76 L 545.92 389.76 "/>
<text xml:space="preserve" transform="matrix(.75 0 0 .75 0 0)" font-size="1.92364" font-family="F1"><tspan y="393.92" x="534.08 535.5227 536.31137 537.4463 538.56198 539.83157 541.27426 542.7169 544.15969">Rx_FERROR</tspan></text>
<text xml:space="preserve" transform="matrix(.75 0 0 .75 0 0)" font-size="1.76334" font-family="F1"><tspan y="392.8" x="546.72 547.6722 548.00888 548.96109">1'hx</tspan></text>
<path transform="matrix(.75,0,0,.75,0,0)" stroke-width=".16" stroke-linecap="butt" stroke-dasharray=".48,.16" stroke-miterlimit="10" stroke-linejoin="miter" fill="none" stroke="#000000" d="M 548 393.28 L 545.92 393.28 "/>
<text xml:space="preserve" transform="matrix(.75 0 0 .75 0 0)" font-size="1.92364" font-family="F1"><tspan y="397.44" x="533.92 535.3627 536.1513 537.28628 538.55587 539.83889 541.28158 542.72427 544.167">Rx_PERROR</tspan></text>
<text xml:space="preserve" transform="matrix(.75 0 0 .75 0 0)" font-size="1.76334" font-family="F1"><tspan y="396.32" x="546.72 547.6722 548.00888 548.96109">1'hx</tspan></text>
<path transform="matrix(.75,0,0,.75,0,0)" stroke-width=".16" stroke-linecap="butt" stroke-dasharray=".48,.16" stroke-miterlimit="10" stroke-linejoin="miter" fill="none" stroke="#000000" d="M 548 396.64 L 545.92 396.64 "/>
<text xml:space="preserve" transform="matrix(.75 0 0 .75 0 0)" font-size="1.92364" font-family="F1"><tspan y="400.8" x="536.96 538.4027 539.19137 540.3263 541.442 542.55776 543.6734 544.1543">Rx_VALID</tspan></text>
<text xml:space="preserve" transform="matrix(.75 0 0 .75 0 0)" font-size="1.76334" font-family="F1"><tspan y="399.68" x="546.72 547.6722 548.00888 548.96109">1'hx</tspan></text>
<text xml:space="preserve" transform="matrix(.75 0 0 .75 0 0)" font-size="2.24425" font-family="F1"><tspan y="384.16" x="526.56 527.83926 529.11849 529.5898 530.869 531.99118 532.64199 533.9212 534.7291 536.00839 537.1305 538.4097 538.88107 540.0032 541.2824">object_receiver</tspan></text>
<path transform="matrix(.75,0,0,.75,0,0)" stroke-width=".16" stroke-linecap="butt" stroke-dasharray=".48,.16" stroke-miterlimit="10" stroke-linejoin="miter" fill="none" stroke="#000000" d="M 548 400.16 L 545.92 400.16 "/>
<path transform="matrix(.75,0,0,.75,0,0)" stroke-width=".16" stroke-linecap="butt" stroke-dasharray=".48,.16" stroke-miterlimit="10" stroke-linejoin="miter" fill="none" stroke="#000000" d="M 453.76 391.52 L 474.56 391.52 L 474.56 415.84 L 453.76 415.84 L 453.76 391.52 "/>
<text xml:space="preserve" transform="matrix(.75 0 0 .75 0 0)" font-size="1.92364" font-family="F1"><tspan y="395.68" x="454.08 454.72056 455.83628 456.952 458.08695">reset</tspan></text>
<text xml:space="preserve" transform="matrix(.75 0 0 .75 0 0)" font-size="1.76334" font-family="F1"><tspan y="394.56" x="449.76 450.71223 451.04887 452.00108">1'hx</tspan></text>
<path transform="matrix(.75,0,0,.75,0,0)" stroke-width=".16" stroke-linecap="butt" stroke-dasharray=".48,.16" stroke-miterlimit="10" stroke-linejoin="miter" fill="none" stroke="#000000" d="M 451.68 395.04 L 453.76 395.04 "/>
<text xml:space="preserve" transform="matrix(.75 0 0 .75 0 0)" font-size="1.92364" font-family="F1"><tspan y="399.2" x="454.08 455.0418 455.52275">clk</tspan></text>
<text xml:space="preserve" transform="matrix(.75 0 0 .75 0 0)" font-size="1.76334" font-family="F1"><tspan y="397.92" x="449.76 450.71223 451.04887 452.00108">1'hx</tspan></text>
<path transform="matrix(.75,0,0,.75,0,0)" stroke-width=".16" stroke-linecap="butt" stroke-dasharray=".48,.16" stroke-miterlimit="10" stroke-linejoin="miter" fill="none" stroke="#000000" d="M 451.68 398.4 L 453.76 398.4 "/>
<text xml:space="preserve" transform="matrix(.75 0 0 .75 0 0)" font-size="1.92364" font-family="F1"><tspan y="402.56" x="454.08 455.1957 456.00364 457.11936 458.56208 459.6778 460.79353">Tx_DATA</tspan></text>
<text xml:space="preserve" transform="matrix(.75 0 0 .75 0 0)" font-size="1.76334" font-family="F1"><tspan y="401.44" x="448.8 449.7522 450.08885 451.04106 451.99327">8'hxx</tspan></text>
<path transform="matrix(.75,0,0,.75,0,0)" stroke-width=".48" stroke-linecap="butt" stroke-dasharray="1.44,.48" stroke-miterlimit="10" stroke-linejoin="miter" fill="none" stroke="#000000" d="M 451.68 401.92 L 453.76 401.92 "/>
<text xml:space="preserve" transform="matrix(.75 0 0 .75 0 0)" font-size="1.92364" font-family="F1"><tspan y="406.08" x="454.08 455.1957 456.31144 457.44639 458.5621 459.67784 460.79356 461.9285 462.40943 463.52516 464.48698">baud_select</tspan></text>
<text xml:space="preserve" transform="matrix(.75 0 0 .75 0 0)" font-size="1.76334" font-family="F1"><tspan y="404.96" x="449.76 450.71223 451.04887 452.00108">3'hx</tspan></text>
<path transform="matrix(.75,0,0,.75,0,0)" stroke-width=".48" stroke-linecap="butt" stroke-dasharray="1.44,.48" stroke-miterlimit="10" stroke-linejoin="miter" fill="none" stroke="#000000" d="M 451.68 405.28 L 453.76 405.28 "/>
<text xml:space="preserve" transform="matrix(.75 0 0 .75 0 0)" font-size="1.92364" font-family="F1"><tspan y="409.44" x="454.08 455.1957 456.00364 457.11936 458.40245">Tx_EN</tspan></text>
<text xml:space="preserve" transform="matrix(.75 0 0 .75 0 0)" font-size="1.76334" font-family="F1"><tspan y="408.32" x="449.76 450.71223 451.04887 452.00108">1'hx</tspan></text>
<path transform="matrix(.75,0,0,.75,0,0)" stroke-width=".16" stroke-linecap="butt" stroke-dasharray=".48,.16" stroke-miterlimit="10" stroke-linejoin="miter" fill="none" stroke="#000000" d="M 451.68 408.8 L 453.76 408.8 "/>
<text xml:space="preserve" transform="matrix(.75 0 0 .75 0 0)" font-size="1.92364" font-family="F1"><tspan y="412.96" x="454.08 455.1957 456.00364 457.11936 458.8891">Tx_WR</tspan></text>
<text xml:space="preserve" transform="matrix(.75 0 0 .75 0 0)" font-size="1.76334" font-family="F1"><tspan y="411.84" x="449.76 450.71223 451.04887 452.00108">1'hx</tspan></text>
<path transform="matrix(.75,0,0,.75,0,0)" stroke-width=".16" stroke-linecap="butt" stroke-dasharray=".48,.16" stroke-miterlimit="10" stroke-linejoin="miter" fill="none" stroke="#000000" d="M 451.68 412.32 L 453.76 412.32 "/>
<text xml:space="preserve" transform="matrix(.75 0 0 .75 0 0)" font-size="1.92364" font-family="F1"><tspan y="402.56" x="469.6 470.71574 471.52366 472.63938">Tx_D</tspan></text>
<text xml:space="preserve" transform="matrix(.75 0 0 .75 0 0)" font-size="1.76334" font-family="F1"><tspan y="401.44" x="475.36 476.3122 476.64884 477.60105">1'hx</tspan></text>
<path transform="matrix(.75,0,0,.75,0,0)" stroke-width=".16" stroke-linecap="butt" stroke-dasharray=".48,.16" stroke-miterlimit="10" stroke-linejoin="miter" fill="none" stroke="#000000" d="M 476.48 401.92 L 474.56 401.92 "/>
<text xml:space="preserve" transform="matrix(.75 0 0 .75 0 0)" font-size="1.92364" font-family="F1"><tspan y="406.08" x="465.92 467.03575 467.84367 468.95939 470.24247 471.68519 472.9548">Tx_BUSY</tspan></text>
<text xml:space="preserve" transform="matrix(.75 0 0 .75 0 0)" font-size="1.76334" font-family="F1"><tspan y="404.96" x="475.36 476.3122 476.64884 477.60105">1'hx</tspan></text>
<text xml:space="preserve" transform="matrix(.75 0 0 .75 0 0)" font-size="2.24425" font-family="F1"><tspan y="391.04" x="455.2 456.47926 457.75849 458.2298 459.50904 460.63117 461.28199 462.56123 463.21205 463.99754 465.27677 466.556 467.67814 469.45109 469.9224 470.5732 471.19673 472.47596">object_transmitter</tspan></text>
<path transform="matrix(.75,0,0,.75,0,0)" stroke-width=".16" stroke-linecap="butt" stroke-dasharray=".48,.16" stroke-miterlimit="10" stroke-linejoin="miter" fill="none" stroke="#000000" d="M 476.48 405.28 L 474.56 405.28 "/>
<path transform="matrix(.75,0,0,.75,0,0)" stroke-width=".16" stroke-linecap="butt" stroke-dasharray=".48,.16" stroke-miterlimit="10" stroke-linejoin="miter" fill="none" stroke="#000000" d="M 803.04 372.48 L 852 372.48 L 852 379.52 L 803.04 379.52 L 803.04 372.48 "/>
<text xml:space="preserve" transform="matrix(.75 0 0 .75 0 0)" font-size="1.92364" font-family="F1"><tspan y="376.64" x="803.36 804.47567 805.5913 806.0722 807.20718 808.3228 808.8037 809.9194 811.03506 812.1507 813.28567 814.24746 815.3631 816.47879 817.5944 818.7294 819.84506 820.4856 821.60128 822.7169 823.85189 824.79446 825.9294 827.04507">data_to_encode_or_decode</tspan></text>
<text xml:space="preserve" transform="matrix(.75 0 0 .75 0 0)" font-size="1.76334" font-family="F1"><tspan y="375.52" x="798.08 799.0322 799.3689 800.3211 801.2733">8'hxx</tspan></text>
<path transform="matrix(.75,0,0,.75,0,0)" stroke-width=".48" stroke-linecap="butt" stroke-dasharray="1.44,.48" stroke-miterlimit="10" stroke-linejoin="miter" fill="none" stroke="#000000" d="M 800.96 376 L 803.04 376 "/>
<text xml:space="preserve" transform="matrix(.75 0 0 .75 0 0)" font-size="1.92364" font-family="F1"><tspan y="376.64" x="827.36 828.47567 829.5913 830.5531 831.68807 832.8037 833.9194 835.03506 836.17 837.28567 837.9262 839.0419 840.15756 841.2732 842.235 843.36996 844.4856 845.60128 846.7169 847.85189 848.9675 850.0832 850.5641">encoded_or_decoded_data</tspan></text>
<text xml:space="preserve" transform="matrix(.75 0 0 .75 0 0)" font-size="1.76334" font-family="F1"><tspan y="375.52" x="852.8 853.7522 854.08889 855.0411 855.9933">8'hxx</tspan></text>
<text xml:space="preserve" transform="matrix(.75 0 0 .75 0 0)" font-size="2.24425" font-family="F1"><tspan y="372" x="818.88 820.15927 821.4385 821.9098 823.189 824.31118 824.962 826.2412 827.52047 828.7997 829.9218 831.20108 832.4803 833.7595 834.56747">object_decoder1</tspan></text>
<path transform="matrix(.75,0,0,.75,0,0)" stroke-width=".48" stroke-linecap="butt" stroke-dasharray="1.44,.48" stroke-miterlimit="10" stroke-linejoin="miter" fill="none" stroke="#000000" d="M 854.08 376 L 852 376 "/>
<path transform="matrix(.75,0,0,.75,0,0)" stroke-width=".16" stroke-linecap="butt" stroke-dasharray=".48,.16" stroke-miterlimit="10" stroke-linejoin="miter" fill="none" stroke="#000000" d="M 711.2 372.48 L 760.16 372.48 L 760.16 379.52 L 711.2 379.52 L 711.2 372.48 "/>
<text xml:space="preserve" transform="matrix(.75 0 0 .75 0 0)" font-size="1.92364" font-family="F1"><tspan y="376.64" x="711.52 712.6357 713.75137 714.23226 715.3672 716.48287 716.96377 718.0794 719.19509 720.3107 721.4457 722.4075 723.52316 724.6388 725.75448 726.8894 728.00509 728.6456 729.7613 730.87698 732.0119 732.95449 734.0894 735.2051">data_to_encode_or_decode</tspan></text>
<text xml:space="preserve" transform="matrix(.75 0 0 .75 0 0)" font-size="1.76334" font-family="F1"><tspan y="375.52" x="706.24 707.1922 707.5289 708.4811 709.4333">8'hxx</tspan></text>
<path transform="matrix(.75,0,0,.75,0,0)" stroke-width=".48" stroke-linecap="butt" stroke-dasharray="1.44,.48" stroke-miterlimit="10" stroke-linejoin="miter" fill="none" stroke="#000000" d="M 709.28 376 L 711.2 376 "/>
<text xml:space="preserve" transform="matrix(.75 0 0 .75 0 0)" font-size="1.92364" font-family="F1"><tspan y="376.64" x="735.52 736.6357 737.75137 738.71316 739.8481 740.96377 742.0794 743.19509 744.33 745.4457 746.08627 747.2019 748.31759 749.4332 750.395 751.52999 752.6456 753.7613 754.87698 756.0119 757.12759 758.2432 758.7241">encoded_or_decoded_data</tspan></text>
<text xml:space="preserve" transform="matrix(.75 0 0 .75 0 0)" font-size="1.76334" font-family="F1"><tspan y="375.52" x="760.96 761.91226 762.2489 763.2011 764.1533">8'hxx</tspan></text>
<text xml:space="preserve" transform="matrix(.75 0 0 .75 0 0)" font-size="2.24425" font-family="F1"><tspan y="372" x="727.04 728.3192 729.59848 730.06979 731.349 732.4711 733.12197 734.4012 735.6804 736.95968 738.0818 739.361 740.64028 741.9195 742.7274">object_decoder2</tspan></text>
<path transform="matrix(.75,0,0,.75,0,0)" stroke-width=".48" stroke-linecap="butt" stroke-dasharray="1.44,.48" stroke-miterlimit="10" stroke-linejoin="miter" fill="none" stroke="#000000" d="M 762.24 376 L 760.16 376 "/>
<path transform="matrix(.75,0,0,.75,0,0)" stroke-width=".16" stroke-linecap="butt" stroke-dasharray=".48,.16" stroke-miterlimit="10" stroke-linejoin="miter" fill="none" stroke="#000000" d="M 619.52 372.48 L 668.48 372.48 L 668.48 379.52 L 619.52 379.52 L 619.52 372.48 "/>
<text xml:space="preserve" transform="matrix(.75 0 0 .75 0 0)" font-size="1.92364" font-family="F1"><tspan y="376.64" x="619.84 620.9557 622.07138 622.55227 623.6872 624.80288 625.28378 626.3994 627.5151 628.63076 629.7657 630.7275 631.84317 632.9588 634.07449 635.2094 636.3251 636.96566 638.0813 639.19699 640.3319 641.2745 642.4094 643.5251">data_to_encode_or_decode</tspan></text>
<text xml:space="preserve" transform="matrix(.75 0 0 .75 0 0)" font-size="1.76334" font-family="F1"><tspan y="375.52" x="614.56 615.5122 615.8489 616.8011 617.7533">8'hxx</tspan></text>
<path transform="matrix(.75,0,0,.75,0,0)" stroke-width=".48" stroke-linecap="butt" stroke-dasharray="1.44,.48" stroke-miterlimit="10" stroke-linejoin="miter" fill="none" stroke="#000000" d="M 617.44 376 L 619.52 376 "/>
<text xml:space="preserve" transform="matrix(.75 0 0 .75 0 0)" font-size="1.92364" font-family="F1"><tspan y="376.64" x="643.84 644.9557 646.07138 647.03317 648.1681 649.28378 650.3994 651.5151 652.65 653.7657 654.40628 655.5219 656.6376 657.75326 658.715 659.85 660.96566 662.0813 663.19699 664.3319 665.4476 666.56326 667.0441">encoded_or_decoded_data</tspan></text>
<text xml:space="preserve" transform="matrix(.75 0 0 .75 0 0)" font-size="1.76334" font-family="F1"><tspan y="375.52" x="669.28 670.23226 670.5689 671.5211 672.4733">8'hxx</tspan></text>
<text xml:space="preserve" transform="matrix(.75 0 0 .75 0 0)" font-size="2.24425" font-family="F1"><tspan y="372" x="635.36 636.6392 637.91848 638.3898 639.669 640.79116 641.44198 642.7212 644.0004 645.27969 646.4018 647.681 648.96029 650.2395 651.0474">object_decoder3</tspan></text>
<path transform="matrix(.75,0,0,.75,0,0)" stroke-width=".48" stroke-linecap="butt" stroke-dasharray="1.44,.48" stroke-miterlimit="10" stroke-linejoin="miter" fill="none" stroke="#000000" d="M 670.4 376 L 668.48 376 "/>
<path transform="matrix(.75,0,0,.75,0,0)" stroke-width=".16" stroke-linecap="butt" stroke-dasharray=".48,.16" stroke-miterlimit="10" stroke-linejoin="miter" fill="none" stroke="#000000" d="M 301.12 412.16 L 350.08 412.16 L 350.08 419.2 L 301.12 419.2 L 301.12 412.16 "/>
<text xml:space="preserve" transform="matrix(.75 0 0 .75 0 0)" font-size="1.92364" font-family="F1"><tspan y="416.32" x="301.44 302.55574 303.67146 304.15235 305.2873 306.403 306.8839 307.99964 309.11537 310.23109 311.36604 312.32786 313.44358 314.5593 315.67503 316.80998 317.9257 318.56626 319.68199 320.7977 321.93266 322.87525 324.0102 325.12593">data_to_encode_or_decode</tspan></text>
<text xml:space="preserve" transform="matrix(.75 0 0 .75 0 0)" font-size="1.76334" font-family="F1"><tspan y="415.2" x="296.16 297.1122 297.44886 298.40107 299.35328">8'hxx</tspan></text>
<path transform="matrix(.75,0,0,.75,0,0)" stroke-width=".48" stroke-linecap="butt" stroke-dasharray="1.44,.48" stroke-miterlimit="10" stroke-linejoin="miter" fill="none" stroke="#000000" d="M 299.04 415.68 L 301.12 415.68 "/>
<text xml:space="preserve" transform="matrix(.75 0 0 .75 0 0)" font-size="1.92364" font-family="F1"><tspan y="416.32" x="325.44 326.55574 327.67146 328.63328 329.76823 330.88395 331.99967 333.1154 334.25035 335.36607 336.00663 337.12236 338.23808 339.3538 340.3156 341.45057 342.56629 343.682 344.79774 345.93269 347.0484 348.16413 348.64503">encoded_or_decoded_data</tspan></text>
<text xml:space="preserve" transform="matrix(.75 0 0 .75 0 0)" font-size="1.76334" font-family="F1"><tspan y="415.2" x="350.88 351.8322 352.16886 353.12107 354.07328">8'hxx</tspan></text>
<text xml:space="preserve" transform="matrix(.75 0 0 .75 0 0)" font-size="2.24425" font-family="F1"><tspan y="411.68" x="316.96 318.23924 319.51847 319.98979 321.269 322.39115 323.04197 324.3212 325.60044 326.87968 328.0018 329.28105 330.56028 331.8395 332.64747">object_encoder3</tspan></text>
<path transform="matrix(.75,0,0,.75,0,0)" stroke-width=".48" stroke-linecap="butt" stroke-dasharray="1.44,.48" stroke-miterlimit="10" stroke-linejoin="miter" fill="none" stroke="#000000" d="M 352 415.68 L 350.08 415.68 "/>
<path transform="matrix(.75,0,0,.75,0,0)" stroke-width=".16" stroke-linecap="butt" stroke-dasharray=".48,.16" stroke-miterlimit="10" stroke-linejoin="miter" fill="none" stroke="#000000" d="M 209.28 412.16 L 258.24 412.16 L 258.24 419.2 L 209.28 419.2 L 209.28 412.16 "/>
<text xml:space="preserve" transform="matrix(.75 0 0 .75 0 0)" font-size="1.92364" font-family="F1"><tspan y="416.32" x="209.6 210.71573 211.83145 212.31237 213.44731 214.56304 215.04395 216.15967 217.27539 218.39112 219.52606 220.48789 221.6036 222.71933 223.83506 224.97 226.08573 226.72632 227.84204 228.95777 230.09272 231.0353 232.17024 233.28597">data_to_encode_or_decode</tspan></text>
<text xml:space="preserve" transform="matrix(.75 0 0 .75 0 0)" font-size="1.76334" font-family="F1"><tspan y="415.2" x="204.32 205.27222 205.60887 206.56108 207.51328">8'hxx</tspan></text>
<path transform="matrix(.75,0,0,.75,0,0)" stroke-width=".48" stroke-linecap="butt" stroke-dasharray="1.44,.48" stroke-miterlimit="10" stroke-linejoin="miter" fill="none" stroke="#000000" d="M 207.2 415.68 L 209.28 415.68 "/>
<text xml:space="preserve" transform="matrix(.75 0 0 .75 0 0)" font-size="1.92364" font-family="F1"><tspan y="416.32" x="233.6 234.71573 235.83145 236.79328 237.92823 239.04395 240.15967 241.27539 242.41034 243.52606 244.16666 245.28238 246.3981 247.51383 248.47565 249.6106 250.72632 251.84204 252.95777 254.09272 255.20844 256.32417 256.80506">encoded_or_decoded_data</tspan></text>
<text xml:space="preserve" transform="matrix(.75 0 0 .75 0 0)" font-size="1.76334" font-family="F1"><tspan y="415.2" x="259.04 259.99223 260.32887 261.28108 262.23329">8'hxx</tspan></text>
<text xml:space="preserve" transform="matrix(.75 0 0 .75 0 0)" font-size="2.24425" font-family="F1"><tspan y="411.68" x="225.12 226.39922 227.67844 228.14974 229.42896 230.55109 231.20192 232.48114 233.76036 235.03958 236.16172 237.44094 238.72016 239.99938 240.8073">object_encoder2</tspan></text>
<path transform="matrix(.75,0,0,.75,0,0)" stroke-width=".48" stroke-linecap="butt" stroke-dasharray="1.44,.48" stroke-miterlimit="10" stroke-linejoin="miter" fill="none" stroke="#000000" d="M 260.32 415.68 L 258.24 415.68 "/>
<path transform="matrix(.75,0,0,.75,0,0)" stroke-width=".16" stroke-linecap="butt" stroke-dasharray=".48,.16" stroke-miterlimit="10" stroke-linejoin="miter" fill="none" stroke="#000000" d="M 117.44 412.16 L 166.4 412.16 L 166.4 419.2 L 117.44 419.2 L 117.44 412.16 "/>
<text xml:space="preserve" transform="matrix(.75 0 0 .75 0 0)" font-size="1.92364" font-family="F1"><tspan y="416.32" x="117.76 118.87571 119.99142 120.47232 121.60727 122.72298 123.20388 124.31959 125.435298 126.551 127.68595 128.64777 129.76349 130.87921 131.99494 133.12989 134.2456 134.8862 136.00193 137.11765 138.2526 139.19518 140.33013 141.44585">data_to_encode_or_decode</tspan></text>
<text xml:space="preserve" transform="matrix(.75 0 0 .75 0 0)" font-size="1.76334" font-family="F1"><tspan y="415.2" x="112.48 113.432209 113.76886 114.72106 115.67326">8'hxx</tspan></text>
<path transform="matrix(.75,0,0,.75,0,0)" stroke-width=".48" stroke-linecap="butt" stroke-dasharray="1.44,.48" stroke-miterlimit="10" stroke-linejoin="miter" fill="none" stroke="#000000" d="M 115.36 415.68 L 117.44 415.68 "/>
<text xml:space="preserve" transform="matrix(.75 0 0 .75 0 0)" font-size="1.92364" font-family="F1"><tspan y="416.32" x="141.76 142.87572 143.99144 144.95326 146.08821 147.20394 148.31966 149.43538 150.57033 151.68605 152.32665 153.44237 154.55809 155.67382 156.63564 157.77059 158.8863 160.00203 161.11775 162.2527 163.36843 164.48415 164.96506">encoded_or_decoded_data</tspan></text>
<text xml:space="preserve" transform="matrix(.75 0 0 .75 0 0)" font-size="1.76334" font-family="F1"><tspan y="415.2" x="167.2 168.1522 168.48886 169.44107 170.39327">8'hxx</tspan></text>
<text xml:space="preserve" transform="matrix(.75 0 0 .75 0 0)" font-size="2.24425" font-family="F1"><tspan y="411.68" x="133.28 134.55922 135.83844 136.30974 137.58896 138.71109 139.36193 140.64115 141.92037 143.19959 144.32172 145.60094 146.88016 148.15938 148.9673">object_encoder1</tspan></text>
<path transform="matrix(.75,0,0,.75,0,0)" stroke-width=".48" stroke-linecap="butt" stroke-dasharray="1.44,.48" stroke-miterlimit="10" stroke-linejoin="miter" fill="none" stroke="#000000" d="M 168.48 415.68 L 166.4 415.68 "/>
<path transform="matrix(.75,0,0,.75,0,0)" stroke-width=".5" stroke-linecap="round" stroke-linejoin="round" fill="none" stroke="#000000" d="M 879.52 467.52 L 880.32 466.72 L 881.12 467.52 L 880.32 468.32 L 879.52 467.52 "/>
<path transform="matrix(.75,0,0,.75,0,0)" stroke-width=".5" stroke-linecap="round" stroke-linejoin="round" fill="none" stroke="#000000" d="M 881.12 467.52 L 883.2 467.52 "/>
<path transform="matrix(.75,0,0,.75,0,0)" stroke-width=".5" stroke-linecap="round" stroke-linejoin="round" fill="none" stroke="#000000" d="M 879.52 467.52 L 877.44 467.52 "/>
<text xml:space="preserve" transform="matrix(.75 0 0 .75 0 0)" font-size="1.76334" font-family="F1"><tspan y="467.04" x="883.68 884.6322 884.9689 885.9211 886.8733">8'hxx</tspan></text>
<path transform="matrix(.75,0,0,.75,0,0)" stroke-width=".48" stroke-linecap="butt" stroke-miterlimit="10" stroke-linejoin="miter" fill="none" stroke="#000000" d="M 883.2 467.52 L 881.12 467.52 "/>
<text xml:space="preserve" transform="matrix(.75 0 0 .75 0 0)" font-size="1.76334" font-family="F1"><tspan y="467.04" x="872.8 873.7522 874.08889 875.0411 875.9933">8'hxx</tspan></text>
<path transform="matrix(.75,0,0,.75,0,0)" stroke-width=".48" stroke-linecap="butt" stroke-miterlimit="10" stroke-linejoin="miter" fill="none" stroke="#000000" d="M 877.44 467.52 L 879.52 467.52 "/>
<path transform="matrix(.75,0,0,.75,0,0)" stroke-width=".5" stroke-linecap="round" stroke-linejoin="round" fill="none" stroke="#000000" d="M 780.8 376 L 781.6 375.2 L 782.4 376 L 781.6 376.8 L 780.8 376 "/>
<path transform="matrix(.75,0,0,.75,0,0)" stroke-width=".5" stroke-linecap="round" stroke-linejoin="round" fill="none" stroke="#000000" d="M 782.4 376 L 784.48 376 "/>
<path transform="matrix(.75,0,0,.75,0,0)" stroke-width=".5" stroke-linecap="round" stroke-linejoin="round" fill="none" stroke="#000000" d="M 780.8 376 L 778.72 376 "/>
<text xml:space="preserve" transform="matrix(.75 0 0 .75 0 0)" font-size="1.76334" font-family="F1"><tspan y="375.52" x="784.96 785.91226 786.2489 787.2011 788.1533">8'hxx</tspan></text>
<path transform="matrix(.75,0,0,.75,0,0)" stroke-width=".48" stroke-linecap="butt" stroke-miterlimit="10" stroke-linejoin="miter" fill="none" stroke="#000000" d="M 784.64 376 L 782.4 376 "/>
<text xml:space="preserve" transform="matrix(.75 0 0 .75 0 0)" font-size="1.76334" font-family="F1"><tspan y="375.52" x="774.08 775.0322 775.3689 776.3211 777.2733">8'hxx</tspan></text>
<path transform="matrix(.75,0,0,.75,0,0)" stroke-width=".48" stroke-linecap="butt" stroke-miterlimit="10" stroke-linejoin="miter" fill="none" stroke="#000000" d="M 778.72 376 L 780.8 376 "/>
<path transform="matrix(.75,0,0,.75,0,0)" stroke-width=".5" stroke-linecap="round" stroke-linejoin="round" fill="none" stroke="#000000" d="M 689.12 376 L 689.92 375.2 L 690.72 376 L 689.92 376.8 L 689.12 376 "/>
<path transform="matrix(.75,0,0,.75,0,0)" stroke-width=".5" stroke-linecap="round" stroke-linejoin="round" fill="none" stroke="#000000" d="M 690.72 376 L 692.8 376 "/>
<path transform="matrix(.75,0,0,.75,0,0)" stroke-width=".5" stroke-linecap="round" stroke-linejoin="round" fill="none" stroke="#000000" d="M 689.12 376 L 687.04 376 "/>
<text xml:space="preserve" transform="matrix(.75 0 0 .75 0 0)" font-size="1.76334" font-family="F1"><tspan y="375.52" x="693.28 694.23226 694.5689 695.5211 696.4733">8'hxx</tspan></text>
<path transform="matrix(.75,0,0,.75,0,0)" stroke-width=".48" stroke-linecap="butt" stroke-miterlimit="10" stroke-linejoin="miter" fill="none" stroke="#000000" d="M 692.8 376 L 690.72 376 "/>
<text xml:space="preserve" transform="matrix(.75 0 0 .75 0 0)" font-size="1.76334" font-family="F1"><tspan y="375.52" x="682.4 683.35226 683.6889 684.6411 685.5933">8'hxx</tspan></text>
<path transform="matrix(.75,0,0,.75,0,0)" stroke-width=".48" stroke-linecap="butt" stroke-miterlimit="10" stroke-linejoin="miter" fill="none" stroke="#000000" d="M 686.88 376 L 689.12 376 "/>
<path transform="matrix(.75,0,0,.75,0,0)" stroke-width=".5" stroke-linecap="round" stroke-linejoin="round" fill="none" stroke="#000000" d="M 597.28 376 L 598.08 375.2 L 598.88 376 L 598.08 376.8 L 597.28 376 "/>
<path transform="matrix(.75,0,0,.75,0,0)" stroke-width=".5" stroke-linecap="round" stroke-linejoin="round" fill="none" stroke="#000000" d="M 598.88 376 L 600.96 376 "/>
<path transform="matrix(.75,0,0,.75,0,0)" stroke-width=".5" stroke-linecap="round" stroke-linejoin="round" fill="none" stroke="#000000" d="M 597.28 376 L 595.2 376 "/>
<text xml:space="preserve" transform="matrix(.75 0 0 .75 0 0)" font-size="1.76334" font-family="F1"><tspan y="375.52" x="601.44 602.3922 602.7289 603.6811 604.6333">8'hxx</tspan></text>
<path transform="matrix(.75,0,0,.75,0,0)" stroke-width=".48" stroke-linecap="butt" stroke-miterlimit="10" stroke-linejoin="miter" fill="none" stroke="#000000" d="M 600.96 376 L 598.88 376 "/>
<text xml:space="preserve" transform="matrix(.75 0 0 .75 0 0)" font-size="1.76334" font-family="F1"><tspan y="375.52" x="590.56 591.5122 591.8489 592.8011 593.7533">8'hxx</tspan></text>
<path transform="matrix(.75,0,0,.75,0,0)" stroke-width=".48" stroke-linecap="butt" stroke-miterlimit="10" stroke-linejoin="miter" fill="none" stroke="#000000" d="M 595.04 376 L 597.28 376 "/>
<path transform="matrix(.75,0,0,.75,0,0)" stroke-width=".5" stroke-linecap="round" stroke-linejoin="round" fill="none" stroke="#000000" d="M 370.56 415.68 L 371.36 414.88 L 372.16 415.68 L 371.36 416.48 L 370.56 415.68 "/>
<path transform="matrix(.75,0,0,.75,0,0)" stroke-width=".5" stroke-linecap="round" stroke-linejoin="round" fill="none" stroke="#000000" d="M 372.16 415.68 L 374.24 415.68 "/>
<path transform="matrix(.75,0,0,.75,0,0)" stroke-width=".5" stroke-linecap="round" stroke-linejoin="round" fill="none" stroke="#000000" d="M 370.56 415.68 L 368.48 415.68 "/>
<text xml:space="preserve" transform="matrix(.75 0 0 .75 0 0)" font-size="1.76334" font-family="F1"><tspan y="415.2" x="374.72 375.6722 376.00886 376.96107 377.91328">8'hxx</tspan></text>
<path transform="matrix(.75,0,0,.75,0,0)" stroke-width=".48" stroke-linecap="butt" stroke-miterlimit="10" stroke-linejoin="miter" fill="none" stroke="#000000" d="M 374.4 415.68 L 372.16 415.68 "/>
<text xml:space="preserve" transform="matrix(.75 0 0 .75 0 0)" font-size="1.76334" font-family="F1"><tspan y="415.2" x="363.84 364.7922 365.12886 366.08106 367.03327">8'hxx</tspan></text>
<path transform="matrix(.75,0,0,.75,0,0)" stroke-width=".48" stroke-linecap="butt" stroke-miterlimit="10" stroke-linejoin="miter" fill="none" stroke="#000000" d="M 368.48 415.68 L 370.56 415.68 "/>
<path transform="matrix(.75,0,0,.75,0,0)" stroke-width=".5" stroke-linecap="round" stroke-linejoin="round" fill="none" stroke="#000000" d="M 278.88 415.68 L 279.68 414.88 L 280.48 415.68 L 279.68 416.48 L 278.88 415.68 "/>
<path transform="matrix(.75,0,0,.75,0,0)" stroke-width=".5" stroke-linecap="round" stroke-linejoin="round" fill="none" stroke="#000000" d="M 280.48 415.68 L 282.56 415.68 "/>
<path transform="matrix(.75,0,0,.75,0,0)" stroke-width=".5" stroke-linecap="round" stroke-linejoin="round" fill="none" stroke="#000000" d="M 278.88 415.68 L 276.8 415.68 "/>
<text xml:space="preserve" transform="matrix(.75 0 0 .75 0 0)" font-size="1.76334" font-family="F1"><tspan y="415.2" x="283.04 283.99223 284.32887 285.28108 286.23329">8'hxx</tspan></text>
<path transform="matrix(.75,0,0,.75,0,0)" stroke-width=".48" stroke-linecap="butt" stroke-miterlimit="10" stroke-linejoin="miter" fill="none" stroke="#000000" d="M 282.56 415.68 L 280.48 415.68 "/>
<text xml:space="preserve" transform="matrix(.75 0 0 .75 0 0)" font-size="1.76334" font-family="F1"><tspan y="415.2" x="272.16 273.1122 273.44886 274.40107 275.35328">8'hxx</tspan></text>
<path transform="matrix(.75,0,0,.75,0,0)" stroke-width=".48" stroke-linecap="butt" stroke-miterlimit="10" stroke-linejoin="miter" fill="none" stroke="#000000" d="M 276.64 415.68 L 278.88 415.68 "/>
<path transform="matrix(.75,0,0,.75,0,0)" stroke-width=".5" stroke-linecap="round" stroke-linejoin="round" fill="none" stroke="#000000" d="M 187.04 415.68 L 187.84 414.88 L 188.64 415.68 L 187.84 416.48 L 187.04 415.68 "/>
<path transform="matrix(.75,0,0,.75,0,0)" stroke-width=".5" stroke-linecap="round" stroke-linejoin="round" fill="none" stroke="#000000" d="M 188.64 415.68 L 190.72 415.68 "/>
<path transform="matrix(.75,0,0,.75,0,0)" stroke-width=".5" stroke-linecap="round" stroke-linejoin="round" fill="none" stroke="#000000" d="M 187.04 415.68 L 184.96 415.68 "/>
<text xml:space="preserve" transform="matrix(.75 0 0 .75 0 0)" font-size="1.76334" font-family="F1"><tspan y="415.2" x="191.2 192.1522 192.48886 193.44107 194.39327">8'hxx</tspan></text>
<path transform="matrix(.75,0,0,.75,0,0)" stroke-width=".48" stroke-linecap="butt" stroke-miterlimit="10" stroke-linejoin="miter" fill="none" stroke="#000000" d="M 190.72 415.68 L 188.64 415.68 "/>
<text xml:space="preserve" transform="matrix(.75 0 0 .75 0 0)" font-size="1.76334" font-family="F1"><tspan y="415.2" x="180.32 181.27222 181.60887 182.56108 183.51328">8'hxx</tspan></text>
<path transform="matrix(.75,0,0,.75,0,0)" stroke-width=".48" stroke-linecap="butt" stroke-miterlimit="10" stroke-linejoin="miter" fill="none" stroke="#000000" d="M 184.96 415.68 L 187.04 415.68 "/>
<path transform="matrix(.75,0,0,.75,0,0)" stroke-width=".5" stroke-linecap="round" stroke-linejoin="round" fill="none" stroke="#000000" d="M 499.52 401.92 L 500.32 401.12 L 501.12 401.92 L 500.32 402.72 L 499.52 401.92 "/>
<path transform="matrix(.75,0,0,.75,0,0)" stroke-width=".5" stroke-linecap="round" stroke-linejoin="round" fill="none" stroke="#000000" d="M 501.12 401.92 L 503.2 401.92 "/>
<path transform="matrix(.75,0,0,.75,0,0)" stroke-width=".5" stroke-linecap="round" stroke-linejoin="round" fill="none" stroke="#000000" d="M 499.52 401.92 L 497.44 401.92 "/>
<text xml:space="preserve" transform="matrix(.75 0 0 .75 0 0)" font-size="1.76334" font-family="F1"><tspan y="401.44" x="503.68 504.6322 504.96885 505.92106">1'hx</tspan></text>
<path transform="matrix(.75,0,0,.75,0,0)" stroke-width=".5" stroke-linecap="round" stroke-linejoin="round" fill="none" stroke="#000000" d="M 503.36 401.92 L 501.12 401.92 "/>
<text xml:space="preserve" transform="matrix(.75 0 0 .75 0 0)" font-size="1.76334" font-family="F1"><tspan y="401.44" x="493.76 494.71223 495.04887 496.00108">1'hx</tspan></text>
<path transform="matrix(.75,0,0,.75,0,0)" stroke-width=".5" stroke-linecap="round" stroke-linejoin="round" fill="none" stroke="#000000" d="M 497.44 401.92 L 499.52 401.92 "/>
<path transform="matrix(.75,0,0,.75,0,0)" stroke-width=".5" stroke-linecap="round" stroke-linejoin="round" fill="none" stroke="#000000" d="M 569.92 389.76 L 570.72 388.96 L 571.52 389.76 L 570.72 390.56 L 569.92 389.76 "/>
<path transform="matrix(.75,0,0,.75,0,0)" stroke-width=".5" stroke-linecap="round" stroke-linejoin="round" fill="none" stroke="#000000" d="M 571.52 389.76 L 573.6 389.76 "/>
<path transform="matrix(.75,0,0,.75,0,0)" stroke-width=".5" stroke-linecap="round" stroke-linejoin="round" fill="none" stroke="#000000" d="M 569.92 389.76 L 567.84 389.76 "/>
<text xml:space="preserve" transform="matrix(.75 0 0 .75 0 0)" font-size="1.76334" font-family="F1"><tspan y="389.28" x="574.08 575.0322 575.3689 576.3211 577.2733">8'hxx</tspan></text>
<path transform="matrix(.75,0,0,.75,0,0)" stroke-width=".48" stroke-linecap="butt" stroke-miterlimit="10" stroke-linejoin="miter" fill="none" stroke="#000000" d="M 573.6 389.76 L 571.52 389.76 "/>
<text xml:space="preserve" transform="matrix(.75 0 0 .75 0 0)" font-size="1.76334" font-family="F1"><tspan y="389.28" x="563.2 564.1522 564.4889 565.4411 566.3933">8'hxx</tspan></text>
<path transform="matrix(.75,0,0,.75,0,0)" stroke-width=".48" stroke-linecap="butt" stroke-miterlimit="10" stroke-linejoin="miter" fill="none" stroke="#000000" d="M 567.84 389.76 L 569.92 389.76 "/>
<path transform="matrix(.75,0,0,.75,0,0)" stroke-width=".5" stroke-linecap="round" stroke-linejoin="round" fill="none" stroke="#000000" d="M 394.56 393.28 L 395.36 392.48 L 396.16 393.28 L 395.36 394.08 L 394.56 393.28 "/>
<path transform="matrix(.75,0,0,.75,0,0)" stroke-width=".5" stroke-linecap="round" stroke-linejoin="round" fill="none" stroke="#000000" d="M 396.16 393.28 L 398.24 393.28 "/>
<path transform="matrix(.75,0,0,.75,0,0)" stroke-width=".5" stroke-linecap="round" stroke-linejoin="round" fill="none" stroke="#000000" d="M 394.56 393.28 L 392.48 393.28 "/>
<text xml:space="preserve" transform="matrix(.75 0 0 .75 0 0)" font-size="1.76334" font-family="F1"><tspan y="392.8" x="398.72 399.6722 400.00886 400.96107 401.91328">8'hxx</tspan></text>
<path transform="matrix(.75,0,0,.75,0,0)" stroke-width=".48" stroke-linecap="butt" stroke-miterlimit="10" stroke-linejoin="miter" fill="none" stroke="#000000" d="M 398.24 393.28 L 396.16 393.28 "/>
<text xml:space="preserve" transform="matrix(.75 0 0 .75 0 0)" font-size="1.76334" font-family="F1"><tspan y="392.8" x="387.84 388.7922 389.12886 390.08106 391.03327">8'hxx</tspan></text>
<path transform="matrix(.75,0,0,.75,0,0)" stroke-width=".48" stroke-linecap="butt" stroke-miterlimit="10" stroke-linejoin="miter" fill="none" stroke="#000000" d="M 392.32 393.28 L 394.56 393.28 "/>
<path transform="matrix(.75,0,0,.75,0,0)" stroke-width=".5" stroke-linecap="round" stroke-linejoin="round" fill="none" stroke="#000000" d="M 95.2 415.68 L 96 414.88 L 96.8 415.68 L 96 416.48 L 95.2 415.68 "/>
<path transform="matrix(.75,0,0,.75,0,0)" stroke-width=".5" stroke-linecap="round" stroke-linejoin="round" fill="none" stroke="#000000" d="M 96.8 415.68 L 98.88 415.68 "/>
<path transform="matrix(.75,0,0,.75,0,0)" stroke-width=".5" stroke-linecap="round" stroke-linejoin="round" fill="none" stroke="#000000" d="M 95.2 415.68 L 93.12 415.68 "/>
<text xml:space="preserve" transform="matrix(.75 0 0 .75 0 0)" font-size="1.76334" font-family="F1"><tspan y="415.2" x="99.36 100.3122 100.64886 101.60106 102.55326">8'hxx</tspan></text>
<path transform="matrix(.75,0,0,.75,0,0)" stroke-width=".48" stroke-linecap="butt" stroke-miterlimit="10" stroke-linejoin="miter" fill="none" stroke="#000000" d="M 99.04 415.68 L 96.8 415.68 "/>
<text xml:space="preserve" transform="matrix(.75 0 0 .75 0 0)" font-size="1.76334" font-family="F1"><tspan y="415.2" x="88.48 89.432209 89.76886 90.72106 91.67326">8'hxx</tspan></text>
<path transform="matrix(.75,0,0,.75,0,0)" stroke-width=".48" stroke-linecap="butt" stroke-miterlimit="10" stroke-linejoin="miter" fill="none" stroke="#000000" d="M 93.12 415.68 L 95.2 415.68 "/>
<path transform="matrix(.75,0,0,.75,0,0)" stroke-width=".16" stroke-linecap="butt" stroke-dasharray=".48,.16" stroke-miterlimit="10" stroke-linejoin="miter" fill="none" stroke="#000000" d="M 395.36 398.4 L 415.2 398.4 L 415.2 419.2 L 395.36 419.2 L 395.36 398.4 "/>
<text xml:space="preserve" transform="matrix(.75 0 0 .75 0 0)" font-size="1.92364" font-family="F1"><tspan y="402.56" x="396.64 397.28059 398.3963 399.35813 400.47386 400.95478 401.7627 402.87843 403.99415 405.1291 406.2448 407.36054 408.47627 409.6112 410.72694 411.84266 412.32359 413.4393 414.40113">receive_baud_select</tspan></text>
<text xml:space="preserve" transform="matrix(.75 0 0 .75 0 0)" font-size="1.76334" font-family="F1"><tspan y="401.44" x="416.16 417.1122 417.44886 418.40107">3'hx</tspan></text>
<path transform="matrix(.75,0,0,.75,0,0)" stroke-width=".48" stroke-linecap="butt" stroke-dasharray="1.44,.48" stroke-miterlimit="10" stroke-linejoin="miter" fill="none" stroke="#000000" d="M 417.28 401.92 L 415.2 401.92 "/>
<text xml:space="preserve" transform="matrix(.75 0 0 .75 0 0)" font-size="1.92364" font-family="F1"><tspan y="405.92" x="398.4 398.8809 399.52146 400.63719 401.7529 402.88786 404.00358 405.1193 406.23503 407.36997 408.4857 409.6014 410.71714 411.83287 412.31379 413.44874 414.41056">trans_baud_select</tspan></text>
<text xml:space="preserve" transform="matrix(.75 0 0 .75 0 0)" font-size="1.76334" font-family="F1"><tspan y="404.8" x="416.16 417.1122 417.44886 418.40107">3'hx</tspan></text>
<path transform="matrix(.75,0,0,.75,0,0)" stroke-width=".48" stroke-linecap="butt" stroke-dasharray="1.44,.48" stroke-miterlimit="10" stroke-linejoin="miter" fill="none" stroke="#000000" d="M 417.28 405.28 L 415.2 405.28 "/>
<text xml:space="preserve" transform="matrix(.75 0 0 .75 0 0)" font-size="1.92364" font-family="F1"><tspan y="409.44" x="405.12 405.6009 406.24147 407.35719 408.4729 409.60786 410.72358 412.1663 412.80686 413.28779 413.76869">trans_write</tspan></text>
<text xml:space="preserve" transform="matrix(.75 0 0 .75 0 0)" font-size="1.76334" font-family="F1"><tspan y="408.32" x="416.16 417.1122 417.44886 418.40107">1'hx</tspan></text>
<path transform="matrix(.75,0,0,.75,0,0)" stroke-width=".16" stroke-linecap="butt" stroke-dasharray=".48,.16" stroke-miterlimit="10" stroke-linejoin="miter" fill="none" stroke="#000000" d="M 417.28 408.8 L 415.2 408.8 "/>
<text xml:space="preserve" transform="matrix(.75 0 0 .75 0 0)" font-size="1.92364" font-family="F1"><tspan y="412.96" x="404.8 405.44056 406.55628 407.5181 408.63383 409.11476 409.92268 411.0384 412.1541 413.4372">receive_EN</tspan></text>
<text xml:space="preserve" transform="matrix(.75 0 0 .75 0 0)" font-size="1.76334" font-family="F1"><tspan y="411.68" x="416.16 417.1122 417.44886 418.40107">1'hx</tspan></text>
<path transform="matrix(.75,0,0,.75,0,0)" stroke-width=".16" stroke-linecap="butt" stroke-dasharray=".48,.16" stroke-miterlimit="10" stroke-linejoin="miter" fill="none" stroke="#000000" d="M 417.28 412.32 L 415.2 412.32 "/>
<text xml:space="preserve" transform="matrix(.75 0 0 .75 0 0)" font-size="1.92364" font-family="F1"><tspan y="416.32" x="406.56 407.0409 407.68147 408.79719 409.9129 411.04786 412.16358 413.4332">trans_EN</tspan></text>
<text xml:space="preserve" transform="matrix(.75 0 0 .75 0 0)" font-size="1.76334" font-family="F1"><tspan y="415.2" x="416.16 417.1122 417.44886 418.40107">1'hx</tspan></text>
<text xml:space="preserve" transform="matrix(.75 0 0 .75 0 0)" font-size="2.24425" font-family="F1"><tspan y="397.92" x="399.2 400.47926 400.95054 402.4093 402.88059 404.3169 404.8106 406.24693 407.52616 408.8054 410.08464">#INITIAL#29</tspan></text>
<path transform="matrix(.75,0,0,.75,0,0)" stroke-width=".16" stroke-linecap="butt" stroke-dasharray=".48,.16" stroke-miterlimit="10" stroke-linejoin="miter" fill="none" stroke="#000000" d="M 417.28 415.68 L 415.2 415.68 "/>
<path transform="matrix(.75,0,0,.75,0,0)" stroke-width=".5" stroke-linecap="round" stroke-linejoin="round" fill="none" stroke="#000000" d="M 880.32 472.8 L 919.04 472.8 L 919.04 483.04 L 880.32 483.04 L 880.32 472.8 "/>
<text xml:space="preserve" transform="matrix(.75 0 0 .75 0 0)" font-size="1.92364" font-family="F1"><tspan y="476.8" x="880.64 881.2806 882.39627 883.35806 884.4737 884.9546 885.7625 886.8782 887.99386 889.1288 890.3984 891.84109 893.28378 894.7265">receive_FERROR</tspan></text>
<text xml:space="preserve" transform="matrix(.75 0 0 .75 0 0)" font-size="1.76334" font-family="F1"><tspan y="475.68" x="876.32 877.2722 877.6089 878.5611">1'hx</tspan></text>
<path transform="matrix(.75,0,0,.75,0,0)" stroke-width=".5" stroke-linecap="round" stroke-linejoin="round" fill="none" stroke="#000000" d="M 878.24 476.16 L 880.32 476.16 "/>
<text xml:space="preserve" transform="matrix(.75 0 0 .75 0 0)" font-size="1.92364" font-family="F1"><tspan y="480.32" x="880.64 881.2806 882.39627 883.35806 884.4737 884.9546 885.7625 886.8782 887.99386 889.27688 890.5599 892.00259 893.44528 894.888">receive_PERROR</tspan></text>
<text xml:space="preserve" transform="matrix(.75 0 0 .75 0 0)" font-size="1.76334" font-family="F1"><tspan y="479.2" x="876.32 877.2722 877.6089 878.5611">1'hx</tspan></text>
<path transform="matrix(.75,0,0,.75,0,0)" stroke-width=".5" stroke-linecap="round" stroke-linejoin="round" fill="none" stroke="#000000" d="M 878.24 479.68 L 880.32 479.68 "/>
<text xml:space="preserve" transform="matrix(.75 0 0 .75 0 0)" font-size="1.92364" font-family="F1"><tspan y="478.56" x="895.36 896.47567 897.5913 898.72628 899.8419 900.3228 901.4385 902.55416 903.2082 904.32388 905.4395 906.5552 907.67086 908.8058 909.92147 911.0371 912.1528 913.2877 914.4034 915.673 916.327 916.9676 918.08328">has_there_been_an_Error</tspan></text>
<text xml:space="preserve" transform="matrix(.75 0 0 .75 0 0)" font-size="1.76334" font-family="F1"><tspan y="477.44" x="919.84 920.79226 921.1289 922.0811">1'hx</tspan></text>
<text xml:space="preserve" transform="matrix(.75 0 0 .75 0 0)" font-size="2.24425" font-family="F1"><tspan y="472.16" x="892 893.27926 894.7156 895.9948 898.082 899.5183 900.95468 902.391 903.6702 904.94949 906.2511">#ALWAYS#149</tspan></text>
<path transform="matrix(.75,0,0,.75,0,0)" stroke-width=".5" stroke-linecap="round" stroke-linejoin="round" fill="none" stroke="#000000" d="M 921.12 477.92 L 919.04 477.92 "/>
<path transform="matrix(.75,0,0,.75,0,0)" stroke-width=".5" stroke-linecap="round" stroke-linejoin="round" fill="none" stroke="#000000" d="M 979.04 355.2 L 1017.76 355.2 L 1017.76 386.24 L 979.04 386.24 L 979.04 355.2 "/>
<text xml:space="preserve" transform="matrix(.75 0 0 .75 0 0)" font-size="1.92364" font-family="F1"><tspan y="366.24" x="979.36 980.00057 981.1162 982.078 983.19369 983.67459 984.4825 985.59817 986.7138 987.84878 989.11837 990.56106 992.0037 993.4465">receive_FERROR</tspan></text>
<text xml:space="preserve" transform="matrix(.75 0 0 .75 0 0)" font-size="1.76334" font-family="F1"><tspan y="364.96" x="975.04 975.9922 976.32888 977.28109">1'hx</tspan></text>
<path transform="matrix(.75,0,0,.75,0,0)" stroke-width=".5" stroke-linecap="round" stroke-linejoin="round" fill="none" stroke="#000000" d="M 976.96 365.6 L 979.04 365.6 "/>
<text xml:space="preserve" transform="matrix(.75 0 0 .75 0 0)" font-size="1.92364" font-family="F1"><tspan y="369.6" x="979.36 980.00057 981.1162 982.078 983.19369 983.67459 984.4825 985.59817 986.7138 987.9968 989.27987 990.72256 992.1652 993.608">receive_PERROR</tspan></text>
<text xml:space="preserve" transform="matrix(.75 0 0 .75 0 0)" font-size="1.76334" font-family="F1"><tspan y="368.48" x="975.04 975.9922 976.32888 977.28109">1'hx</tspan></text>
<path transform="matrix(.75,0,0,.75,0,0)" stroke-width=".5" stroke-linecap="round" stroke-linejoin="round" fill="none" stroke="#000000" d="M 976.96 368.96 L 979.04 368.96 "/>
<text xml:space="preserve" transform="matrix(.75 0 0 .75 0 0)" font-size="1.92364" font-family="F1"><tspan y="373.12" x="979.36 980.00057 981.1162 982.078 983.19369 983.67459 984.4825 985.59817 986.7138 987.84878 988.9645 990.08016 990.56106">receive_VALID</tspan></text>
<text xml:space="preserve" transform="matrix(.75 0 0 .75 0 0)" font-size="1.76334" font-family="F1"><tspan y="372" x="975.04 975.9922 976.32888 977.28109">1'hx</tspan></text>
<path transform="matrix(.75,0,0,.75,0,0)" stroke-width=".5" stroke-linecap="round" stroke-linejoin="round" fill="none" stroke="#000000" d="M 976.96 372.48 L 979.04 372.48 "/>
<text xml:space="preserve" transform="matrix(.75 0 0 .75 0 0)" font-size="1.92364" font-family="F1"><tspan y="376.48" x="979.36 980.47567 981.5913 982.0722 983.20718 984.3228 984.8037 985.9194 987.03506 988.1507 989.1125 990.24746 991.3631 992.47879">output_decoder</tspan></text>
<text xml:space="preserve" transform="matrix(.75 0 0 .75 0 0)" font-size="1.76334" font-family="F1"><tspan y="375.36" x="974.08 975.0322 975.3689 976.3211 977.2733">8'hxx</tspan></text>
<path transform="matrix(.75,0,0,.75,0,0)" stroke-width=".48" stroke-linecap="butt" stroke-miterlimit="10" stroke-linejoin="miter" fill="none" stroke="#000000" d="M 976.96 376 L 979.04 376 "/>
<text xml:space="preserve" transform="matrix(.75 0 0 .75 0 0)" font-size="1.92364" font-family="F1"><tspan y="359.2" x="994.08 995.1957 996.31137 997.4463 998.56198 999.04287 1000.1585 1001.2742 1001.9282 1003.0439 1004.15957 1005.2752 1006.39089 1007.5258 1008.6415 1009.75717 1010.8728 1012.00778 1013.1234 1014.393 1015.04708 1015.6876 1016.8033">has_there_been_an_Error</tspan></text>
<text xml:space="preserve" transform="matrix(.75 0 0 .75 0 0)" font-size="1.76334" font-family="F1"><tspan y="358.08" x="1018.56 1019.5122 1019.8489 1020.8011">1'hx</tspan></text>
<path transform="matrix(.75,0,0,.75,0,0)" stroke-width=".5" stroke-linecap="round" stroke-linejoin="round" fill="none" stroke="#000000" d="M 1019.84 358.72 L 1017.76 358.72 "/>
<text xml:space="preserve" transform="matrix(.75 0 0 .75 0 0)" font-size="1.92364" font-family="F1"><tspan y="362.72" x="1005.28 1006.56307 1007.2036 1007.8442 1008.95986 1009.6139 1010.72958 1011.21047 1012.3261 1013.4418 1014.8845 1016.16757">Error_in_MSB</tspan></text>
<text xml:space="preserve" transform="matrix(.75 0 0 .75 0 0)" font-size="1.76334" font-family="F1"><tspan y="361.6" x="1018.56 1019.5122 1019.8489 1020.8011">1'hx</tspan></text>
<path transform="matrix(.75,0,0,.75,0,0)" stroke-width=".5" stroke-linecap="round" stroke-linejoin="round" fill="none" stroke="#000000" d="M 1019.84 362.08 L 1017.76 362.08 "/>
<text xml:space="preserve" transform="matrix(.75 0 0 .75 0 0)" font-size="1.92364" font-family="F1"><tspan y="366.24" x="996.32 997.2818 998.39749 999.038 999.6921 1000.80776 1001.9234 1002.4043 1003.51998 1004.6356 1005.77059 1006.25149 1007.3671 1008.4828 1008.9637 1010.07937 1011.195 1012.32998 1012.81088 1013.9265 1015.0422 1015.5231 1016.63876">current_data_to_display</tspan></text>
<text xml:space="preserve" transform="matrix(.75 0 0 .75 0 0)" font-size="1.76334" font-family="F1"><tspan y="364.96" x="1018.56 1019.5122 1020.48208 1020.79946 1021.75167 1022.7215 1023.6737 1024.6436">16'hxxxx</tspan></text>
<path transform="matrix(.75,0,0,.75,0,0)" stroke-width=".48" stroke-linecap="butt" stroke-miterlimit="10" stroke-linejoin="miter" fill="none" stroke="#000000" d="M 1019.84 365.6 L 1017.76 365.6 "/>
<text xml:space="preserve" transform="matrix(.75 0 0 .75 0 0)" font-size="1.92364" font-family="F1"><tspan y="369.6" x="1012.64 1013.7557 1014.2366 1015.35226 1015.8331 1016.314">digit0</tspan></text>
<text xml:space="preserve" transform="matrix(.75 0 0 .75 0 0)" font-size="1.76334" font-family="F1"><tspan y="368.48" x="1018.56 1019.5122 1019.8489 1020.8011">4'hx</tspan></text>
<path transform="matrix(.75,0,0,.75,0,0)" stroke-width=".48" stroke-linecap="butt" stroke-miterlimit="10" stroke-linejoin="miter" fill="none" stroke="#000000" d="M 1019.84 368.96 L 1017.76 368.96 "/>
<text xml:space="preserve" transform="matrix(.75 0 0 .75 0 0)" font-size="1.92364" font-family="F1"><tspan y="373.12" x="1012.64 1013.7557 1014.2366 1015.35226 1015.8331 1016.314">digit1</tspan></text>
<text xml:space="preserve" transform="matrix(.75 0 0 .75 0 0)" font-size="1.76334" font-family="F1"><tspan y="372" x="1018.56 1019.5122 1019.8489 1020.8011">4'hx</tspan></text>
<path transform="matrix(.75,0,0,.75,0,0)" stroke-width=".48" stroke-linecap="butt" stroke-miterlimit="10" stroke-linejoin="miter" fill="none" stroke="#000000" d="M 1019.84 372.48 L 1017.76 372.48 "/>
<text xml:space="preserve" transform="matrix(.75 0 0 .75 0 0)" font-size="1.92364" font-family="F1"><tspan y="376.48" x="1012.64 1013.7557 1014.2366 1015.35226 1015.8331 1016.314">digit2</tspan></text>
<text xml:space="preserve" transform="matrix(.75 0 0 .75 0 0)" font-size="1.76334" font-family="F1"><tspan y="375.36" x="1018.56 1019.5122 1019.8489 1020.8011">4'hx</tspan></text>
<path transform="matrix(.75,0,0,.75,0,0)" stroke-width=".48" stroke-linecap="butt" stroke-miterlimit="10" stroke-linejoin="miter" fill="none" stroke="#000000" d="M 1019.84 376 L 1017.76 376 "/>
<text xml:space="preserve" transform="matrix(.75 0 0 .75 0 0)" font-size="1.92364" font-family="F1"><tspan y="380" x="1012.64 1013.7557 1014.2366 1015.35226 1015.8331 1016.314">digit3</tspan></text>
<text xml:space="preserve" transform="matrix(.75 0 0 .75 0 0)" font-size="1.76334" font-family="F1"><tspan y="378.88" x="1018.56 1019.5122 1019.8489 1020.8011">4'hx</tspan></text>
<path transform="matrix(.75,0,0,.75,0,0)" stroke-width=".48" stroke-linecap="butt" stroke-miterlimit="10" stroke-linejoin="miter" fill="none" stroke="#000000" d="M 1019.84 379.36 L 1017.76 379.36 "/>
<text xml:space="preserve" transform="matrix(.75 0 0 .75 0 0)" font-size="1.92364" font-family="F1"><tspan y="383.52" x="1013.44 1014.88278 1016.15237">MSB</tspan></text>
<text xml:space="preserve" transform="matrix(.75 0 0 .75 0 0)" font-size="1.76334" font-family="F1"><tspan y="382.24" x="1018.56 1019.5122 1019.8489 1020.8011">1'hx</tspan></text>
<text xml:space="preserve" transform="matrix(.75 0 0 .75 0 0)" font-size="2.24425" font-family="F1"><tspan y="354.72" x="990.72 991.9992 993.43557 994.7148 996.80197 998.2383 999.6746 1001.11099 1002.3902 1003.66946 1004.97109">#ALWAYS#154</tspan></text>
<path transform="matrix(.75,0,0,.75,0,0)" stroke-width=".5" stroke-linecap="round" stroke-linejoin="round" fill="none" stroke="#000000" d="M 1019.84 382.88 L 1017.76 382.88 "/>
<path transform="matrix(.75,0,0,.75,0,0)" stroke-width=".5" stroke-linecap="round" stroke-linejoin="round" fill="none" stroke="#000000" d="M 26.08 391.52 L 56.64 391.52 L 56.64 422.56 L 26.08 422.56 L 26.08 391.52 "/>
<text xml:space="preserve" transform="matrix(.75 0 0 .75 0 0)" font-size="1.92364" font-family="F1"><tspan y="407.68" x="26.4 26.880909 27.521496 28.637207 29.752919 30.887867 32.00358 33.11929 34.235 35.369947">trans_busy</tspan></text>
<text xml:space="preserve" transform="matrix(.75 0 0 .75 0 0)" font-size="1.76334" font-family="F1"><tspan y="406.56" x="22.08 23.032204 23.368859 24.321063">1'hx</tspan></text>
<path transform="matrix(.75,0,0,.75,0,0)" stroke-width=".5" stroke-linecap="round" stroke-linejoin="round" fill="none" stroke="#000000" d="M 24 407.04 L 26.08 407.04 "/>
<text xml:space="preserve" transform="matrix(.75 0 0 .75 0 0)" font-size="1.92364" font-family="F1"><tspan y="395.52" x="40.96 42.07571 42.55662 43.037534 44.153245 45.288194 46.403905 46.884817 48.000528 49.116239 49.59715 50.71286 51.84781 52.96352 54.07923 55.194944">all_data_to_send</tspan></text>
<text xml:space="preserve" transform="matrix(.75 0 0 .75 0 0)" font-size="1.76334" font-family="F1"><tspan y="394.4" x="57.6 58.5522 59.522039 59.83944 60.79164 61.761476 62.713678 63.68351 64.63571 65.11181 65.601718 66.07781 67.047649 67.99985 68.31725 69.28709 70.23929 71.20912 72.16132">16'hxxxx...16'hxxxx</tspan></text>
<path transform="matrix(.75,0,0,.75,0,0)" stroke-width=".48" stroke-linecap="butt" stroke-miterlimit="10" stroke-linejoin="miter" fill="none" stroke="#000000" d="M 58.72 395.04 L 56.64 395.04 "/>
<text xml:space="preserve" transform="matrix(.75 0 0 .75 0 0)" font-size="1.92364" font-family="F1"><tspan y="399.04" x="47.36 48.47571 48.956624 50.072336 51.207284 52.322996 52.803907 53.919618 54.881437 55.362348">global_clk</tspan></text>
<text xml:space="preserve" transform="matrix(.75 0 0 .75 0 0)" font-size="1.76334" font-family="F1"><tspan y="397.92" x="57.6 58.5522 58.88885 59.841054">1'hx</tspan></text>
<path transform="matrix(.75,0,0,.75,0,0)" stroke-width=".5" stroke-linecap="round" stroke-linejoin="round" fill="none" stroke="#000000" d="M 58.72 398.4 L 56.64 398.4 "/>
<text xml:space="preserve" transform="matrix(.75 0 0 .75 0 0)" font-size="1.92364" font-family="F1"><tspan y="402.56" x="45.28 46.39571 46.87662 47.992334 49.12728 50.242994 50.723905 51.839616 52.4802 53.595914 54.711626 55.846574">global_reset</tspan></text>
<text xml:space="preserve" transform="matrix(.75 0 0 .75 0 0)" font-size="1.76334" font-family="F1"><tspan y="401.28" x="57.6 58.5522 58.88885 59.841054">1'hx</tspan></text>
<path transform="matrix(.75,0,0,.75,0,0)" stroke-width=".5" stroke-linecap="round" stroke-linejoin="round" fill="none" stroke="#000000" d="M 58.72 401.92 L 56.64 401.92 "/>
<text xml:space="preserve" transform="matrix(.75 0 0 .75 0 0)" font-size="1.92364" font-family="F1"><tspan y="405.92" x="55.84">i</tspan></text>
<text xml:space="preserve" transform="matrix(.75 0 0 .75 0 0)" font-size="1.76334" font-family="F1"><tspan y="404.8" x="57.6 58.5522 59.522039 59.83944 60.79164 61.761476 62.713678 63.68351 64.63571 65.605548 66.55775 67.52758">32'hxxxxxxxx</tspan></text>
<path transform="matrix(.75,0,0,.75,0,0)" stroke-width=".48" stroke-linecap="butt" stroke-miterlimit="10" stroke-linejoin="miter" fill="none" stroke="#000000" d="M 58.72 405.28 L 56.64 405.28 "/>
<text xml:space="preserve" transform="matrix(.75 0 0 .75 0 0)" font-size="1.92364" font-family="F1"><tspan y="409.44" x="36.96 37.921819 39.03753 39.678117 40.332155 41.447866 42.563577 43.044488 44.1602 45.27591 46.41086 46.89177 48.00748 49.12319 49.604104 50.719816 51.835527 52.97047 54.08618 55.201894">current_data_to_send</tspan></text>
<text xml:space="preserve" transform="matrix(.75 0 0 .75 0 0)" font-size="1.76334" font-family="F1"><tspan y="408.32" x="57.6 58.5522 59.522039 59.83944 60.79164 61.761476 62.713678 63.68351">16'hxxxx</tspan></text>
<path transform="matrix(.75,0,0,.75,0,0)" stroke-width=".48" stroke-linecap="butt" stroke-miterlimit="10" stroke-linejoin="miter" fill="none" stroke="#000000" d="M 58.72 408.8 L 56.64 408.8 "/>
<text xml:space="preserve" transform="matrix(.75 0 0 .75 0 0)" font-size="1.92364" font-family="F1"><tspan y="412.8" x="37.12 38.081819 39.19753 39.838117 40.492155 41.607866 42.723577 43.204488 44.320199 45.60325 46.411176 46.892087 48.007799 49.12351 49.60442 50.72013 51.835844 52.970788 54.0865 55.20221">current_Byte_to_send</tspan></text>
<text xml:space="preserve" transform="matrix(.75 0 0 .75 0 0)" font-size="1.76334" font-family="F1"><tspan y="411.68" x="57.6 58.5522 58.88885 59.841054 60.79326">8'hxx</tspan></text>
<path transform="matrix(.75,0,0,.75,0,0)" stroke-width=".48" stroke-linecap="butt" stroke-miterlimit="10" stroke-linejoin="miter" fill="none" stroke="#000000" d="M 58.72 412.32 L 56.64 412.32 "/>
<text xml:space="preserve" transform="matrix(.75 0 0 .75 0 0)" font-size="1.92364" font-family="F1"><tspan y="416.32" x="43.68 44.16091 45.276624 46.392335 47.527284 48.008195 49.123907 50.239618 51.355329 52.317148 53.432859 54.567808 55.683519">input_encoder</tspan></text>
<text xml:space="preserve" transform="matrix(.75 0 0 .75 0 0)" font-size="1.76334" font-family="F1"><tspan y="415.2" x="57.6 58.5522 58.88885 59.841054 60.79326">8'hxx</tspan></text>
<path transform="matrix(.75,0,0,.75,0,0)" stroke-width=".48" stroke-linecap="butt" stroke-miterlimit="10" stroke-linejoin="miter" fill="none" stroke="#000000" d="M 58.72 415.68 L 56.64 415.68 "/>
<text xml:space="preserve" transform="matrix(.75 0 0 .75 0 0)" font-size="1.92364" font-family="F1"><tspan y="419.84" x="46.56 47.040914 47.6815 48.79721 49.91292 51.047868 52.163579 53.606309 54.246896 54.727807 55.208719">trans_write</tspan></text>
<text xml:space="preserve" transform="matrix(.75 0 0 .75 0 0)" font-size="1.76334" font-family="F1"><tspan y="418.56" x="57.6 58.5522 58.88885 59.841054">1'hx</tspan></text>
<text xml:space="preserve" transform="matrix(.75 0 0 .75 0 0)" font-size="2.24425" font-family="F1"><tspan y="391.04" x="34.56 35.839223 36.310518 37.76928 38.240575 39.676897 40.17063 41.606954 42.886175 44.165395 45.444616 46.723836">#INITIAL#238</tspan></text>
<path transform="matrix(.75,0,0,.75,0,0)" stroke-width=".5" stroke-linecap="round" stroke-linejoin="round" fill="none" stroke="#000000" d="M 58.72 419.2 L 56.64 419.2 "/>
<path transform="matrix(.75,0,0,.75,301.44,291.06)" stroke-width=".5" stroke-linecap="round" stroke-linejoin="round" fill="none" stroke="#000000" d="M 0 0 C 0 -.39 -.32 -.72 -.72 -.72 C -1.12 -.72 -1.44 -.39 -1.44 0 C -1.44 .39 -1.12 .72 -.72 .72 C -.32 .72 0 .39 0 0 Z "/>
<path transform="matrix(.75,0,0,.75,0,0)" stroke-width=".5" stroke-linecap="round" stroke-linejoin="round" fill="none" stroke="#000000" d="M 395.36 388 L 395.36 385.92 L 400.48 388 L 395.36 390.08 L 395.36 388 "/>
<text xml:space="preserve" transform="matrix(.75 0 0 .75 0 0)" font-size="1.76334" font-family="F1"><tspan y="387.52" x="404.32 405.27223 405.60887 406.56108">1'hx</tspan></text>
<path transform="matrix(.75,0,0,.75,0,0)" stroke-width=".5" stroke-linecap="round" stroke-linejoin="round" fill="none" stroke="#000000" d="M 404 388 L 401.92 388 "/>
<text xml:space="preserve" transform="matrix(.75 0 0 .75 0 0)" font-size="1.76334" font-family="F1"><tspan y="387.52" x="389.76 390.71223 391.04887 392.00108">1'hx</tspan></text>
<path transform="matrix(.75,0,0,.75,0,0)" stroke-width=".5" stroke-linecap="round" stroke-linejoin="round" fill="none" stroke="#000000" d="M 393.28 388 L 395.36 388 "/>
<path transform="matrix(.75,0,0,.75,0,0)" stroke-width=".5" stroke-linecap="round" stroke-linejoin="round" fill="none" stroke="#000000" d="M 916.96 443.36 L 931.52 443.36 L 931.52 343.04 L 1037.76 343.04 L 1037.76 362.08 L 1019.84 362.08 "/>
<path transform="matrix(.75,0,0,.75,0,0)" stroke-width=".5" stroke-linecap="round" stroke-linejoin="round" fill="none" stroke="#000000" d="M 916.96 446.88 L 966.08 446.88 L 966.08 398.4 L 1030.88 398.4 L 1030.88 382.88 L 1019.84 382.88 "/>
<path transform="matrix(.75,0,0,.75,0,0)" stroke-width=".5" stroke-linecap="round" stroke-linejoin="round" fill="none" stroke="#000000" d="M 991.52 420.96 L 1029.12 420.96 "/>
<path transform="matrix(.75,0,0,.75,0,0)" stroke-width=".5" stroke-linecap="round" stroke-linejoin="round" fill="none" stroke="#000000" d="M 991.52 417.44 L 1029.12 417.44 "/>
<path transform="matrix(.75,0,0,.75,0,0)" stroke-width=".5" stroke-linecap="round" stroke-linejoin="round" fill="none" stroke="#000000" d="M 991.52 413.92 L 1029.12 413.92 "/>
<path transform="matrix(.75,0,0,.75,0,0)" stroke-width=".5" stroke-linecap="round" stroke-linejoin="round" fill="none" stroke="#000000" d="M 991.52 410.56 L 1029.12 410.56 "/>
<path transform="matrix(.75,0,0,.75,0,0)" stroke-width=".5" stroke-linecap="round" stroke-linejoin="round" fill="none" stroke="#000000" d="M 991.52 407.04 L 1029.12 407.04 "/>
<path transform="matrix(.75,0,0,.75,0,0)" stroke-width=".5" stroke-linecap="round" stroke-linejoin="round" fill="none" stroke="#000000" d="M 991.52 424.32 L 1029.12 424.32 "/>
<path transform="matrix(.75,0,0,.75,0,0)" stroke-width=".5" stroke-linecap="round" stroke-linejoin="round" fill="none" stroke="#000000" d="M 991.52 427.84 L 1029.12 427.84 "/>
<path transform="matrix(.75,0,0,.75,0,0)" stroke-width=".5" stroke-linecap="round" stroke-linejoin="round" fill="none" stroke="#000000" d="M 991.52 431.2 L 1029.12 431.2 "/>
<path transform="matrix(.75,0,0,.75,0,0)" stroke-width=".5" stroke-linecap="round" stroke-linejoin="round" fill="none" stroke="#000000" d="M 991.52 434.72 L 1029.12 434.72 "/>
<path transform="matrix(.75,0,0,.75,0,0)" stroke-width=".5" stroke-linecap="round" stroke-linejoin="round" fill="none" stroke="#000000" d="M 991.52 438.24 L 1029.12 438.24 "/>
<path transform="matrix(.75,0,0,.75,0,0)" stroke-width=".5" stroke-linecap="round" stroke-linejoin="round" fill="none" stroke="#000000" d="M 991.52 441.6 L 1029.12 441.6 "/>
<path transform="matrix(.75,0,0,.75,0,0)" stroke-width=".5" stroke-linecap="round" stroke-linejoin="round" fill="none" stroke="#000000" d="M 58.72 398.4 L 80.64 398.4 L 80.64 379.36 L 383.36 379.36 L 383.36 388 L 393.28 388 "/>
<path transform="matrix(.75,0,0,.75,0,0)" stroke-width=".5" stroke-linecap="round" stroke-linejoin="round" fill="none" stroke="#000000" d="M 383.36 379.36 L 444.16 379.36 L 444.16 398.4 L 451.68 398.4 "/>
<path transform="matrix(.75,0,0,.75,0,0)" stroke-width=".5" stroke-linecap="round" stroke-linejoin="round" fill="none" stroke="#000000" d="M 444.16 379.36 L 489.6 379.36 L 489.6 386.4 L 511.04 386.4 "/>
<path transform="matrix(.75,0,0,.75,0,0)" d="M 510.72 386.08 L 511.52 386.08 L 511.52 386.88 L 510.72 386.88 Z M 383.04 379.04 L 383.84 379.04 L 383.84 379.84 L 383.04 379.84 Z M 443.84 379.04 L 444.64 379.04 L 444.64 379.84 L 443.84 379.84 Z M 443.84 387.68 L 444.64 387.68 L 444.64 388.48 L 443.84 388.48 Z " fill-rule="evenodd"/>
<path transform="matrix(.75,0,0,.75,0,0)" stroke-width=".5" stroke-linecap="round" stroke-linejoin="round" fill="none" stroke="#000000" d="M 404 388 L 444.16 388 "/>
<path transform="matrix(.75,0,0,.75,0,0)" stroke-width=".5" stroke-linecap="round" stroke-linejoin="round" fill="none" stroke="#000000" d="M 520.8 391.52 L 511.04 391.52 L 511.04 367.36 L 534.88 367.36 "/>
<path transform="matrix(.75,0,0,.75,0,0)" stroke-width=".5" stroke-linecap="round" stroke-linejoin="round" fill="none" stroke="#000000" d="M 534.88 367.36 L 868.48 367.36 L 868.48 413.92 L 948.8 413.92 L 948.8 419.2 L 976.96 419.2 "/>
<path transform="matrix(.75,0,0,.75,0,0)" stroke-width=".5" stroke-linecap="round" stroke-linejoin="round" fill="none" stroke="#000000" d="M 58.72 401.92 L 84.16 401.92 L 84.16 381.12 L 440.8 381.12 L 440.8 395.04 L 451.68 395.04 "/>
<path transform="matrix(.75,0,0,.75,0,0)" stroke-width=".5" stroke-linecap="round" stroke-linejoin="round" fill="none" stroke="#000000" d="M 440.8 381.12 L 486.24 381.12 L 486.24 388 L 514.56 388 "/>
<path transform="matrix(.75,0,0,.75,0,0)" d="M 514.24 387.68 L 515.04 387.68 L 515.04 388.48 L 514.24 388.48 Z M 440.48 380.8 L 441.28 380.8 L 441.28 381.6 L 440.48 381.6 Z " fill-rule="evenodd"/>
<path transform="matrix(.75,0,0,.75,0,0)" stroke-width=".5" stroke-linecap="round" stroke-linejoin="round" fill="none" stroke="#000000" d="M 520.8 388 L 514.56 388 "/>
<path transform="matrix(.75,0,0,.75,0,0)" stroke-width=".5" stroke-linecap="round" stroke-linejoin="round" fill="none" stroke="#000000" d="M 514.56 388 L 514.56 368.96 L 864.96 368.96 L 864.96 434.72 L 878.24 434.72 "/>
<path transform="matrix(.75,0,0,.75,0,0)" d="M 864.64 415.36 L 865.44 415.36 L 865.44 416.16 L 864.64 416.16 Z "/>
<path transform="matrix(.75,0,0,.75,0,0)" stroke-width=".5" stroke-linecap="round" stroke-linejoin="round" fill="none" stroke="#000000" d="M 864.96 415.68 L 976.96 415.68 "/>
<path transform="matrix(.75,0,0,.75,0,0)" stroke-width=".5" stroke-linecap="round" stroke-linejoin="round" fill="none" stroke="#000000" d="M 921.12 477.92 L 934.88 477.92 L 934.88 339.68 L 1041.28 339.68 L 1041.28 358.72 L 1019.84 358.72 "/>
<path transform="matrix(.75,0,0,.75,0,0)" d="M 934.56 439.52 L 935.36 439.52 L 935.36 440.32 L 934.56 440.32 Z "/>
<path transform="matrix(.75,0,0,.75,0,0)" stroke-width=".5" stroke-linecap="round" stroke-linejoin="round" fill="none" stroke="#000000" d="M 916.96 439.84 L 934.88 439.84 "/>
<path transform="matrix(.75,0,0,.75,0,0)" stroke-width=".5" stroke-linecap="round" stroke-linejoin="round" fill="none" stroke="#000000" d="M 417.28 412.32 L 423.52 412.32 L 423.52 420.96 L 514.56 420.96 L 514.56 398.4 L 520.8 398.4 "/>
<path transform="matrix(.75,0,0,.75,0,0)" stroke-width=".5" stroke-linecap="round" stroke-linejoin="round" fill="none" stroke="#000000" d="M 548 393.28 L 555.36 393.28 L 555.36 386.4 L 582.72 386.4 L 582.72 476.16 L 868.48 476.16 "/>
<path transform="matrix(.75,0,0,.75,0,0)" d="M 868.16 475.84 L 868.96 475.84 L 868.96 476.64 L 868.16 476.64 Z "/>
<path transform="matrix(.75,0,0,.75,0,0)" stroke-width=".5" stroke-linecap="round" stroke-linejoin="round" fill="none" stroke="#000000" d="M 878.24 476.16 L 868.48 476.16 L 868.48 469.28 L 938.4 469.28 L 938.4 365.6 L 976.96 365.6 "/>
<path transform="matrix(.75,0,0,.75,0,0)" stroke-width=".5" stroke-linecap="round" stroke-linejoin="round" fill="none" stroke="#000000" d="M 548 396.64 L 558.88 396.64 L 558.88 484.8 L 864.96 484.8 "/>
<path transform="matrix(.75,0,0,.75,0,0)" d="M 864.64 484.48 L 865.44 484.48 L 865.44 485.28 L 864.64 485.28 Z "/>
<path transform="matrix(.75,0,0,.75,0,0)" stroke-width=".5" stroke-linecap="round" stroke-linejoin="round" fill="none" stroke="#000000" d="M 878.24 479.68 L 864.96 479.68 L 864.96 484.8 L 959.2 484.8 L 959.2 368.96 L 976.96 368.96 "/>
<path transform="matrix(.75,0,0,.75,0,0)" stroke-width=".5" stroke-linecap="round" stroke-linejoin="round" fill="none" stroke="#000000" d="M 548 400.16 L 555.36 400.16 L 555.36 486.56 L 962.56 486.56 L 962.56 372.48 L 976.96 372.48 "/>
<path transform="matrix(.75,0,0,.75,0,0)" stroke-width=".5" stroke-linecap="round" stroke-linejoin="round" fill="none" stroke="#000000" d="M 503.36 401.92 L 520.8 401.92 "/>
<path transform="matrix(.75,0,0,.75,0,0)" stroke-width=".5" stroke-linecap="round" stroke-linejoin="round" fill="none" stroke="#000000" d="M 417.28 415.68 L 430.4 415.68 L 430.4 408.8 L 451.68 408.8 "/>
<path transform="matrix(.75,0,0,.75,0,0)" stroke-width=".5" stroke-linecap="round" stroke-linejoin="round" fill="none" stroke="#000000" d="M 24 407.04 L 17.76 407.04 L 17.76 382.88 L 82.4 382.88 "/>
<path transform="matrix(.75,0,0,.75,0,0)" stroke-width=".5" stroke-linecap="round" stroke-linejoin="round" fill="none" stroke="#000000" d="M 82.4 382.88 L 482.72 382.88 L 482.72 405.28 L 476.48 405.28 "/>
<path transform="matrix(.75,0,0,.75,0,0)" stroke-width=".5" stroke-linecap="round" stroke-linejoin="round" fill="none" stroke="#000000" d="M 476.48 401.92 L 497.44 401.92 "/>
<path transform="matrix(.75,0,0,.75,0,0)" stroke-width=".5" stroke-linecap="round" stroke-linejoin="round" fill="none" stroke="#000000" d="M 58.72 419.2 L 80.64 419.2 L 80.64 429.6 L 426.88 429.6 L 426.88 408.8 L 417.28 408.8 "/>
<path transform="matrix(.75,0,0,.75,0,0)" d="M 426.56 412 L 427.36 412 L 427.36 412.8 L 426.56 412.8 Z "/>
<path transform="matrix(.75,0,0,.75,0,0)" stroke-width=".5" stroke-linecap="round" stroke-linejoin="round" fill="none" stroke="#000000" d="M 426.88 412.32 L 451.68 412.32 "/>
<path transform="matrix(.75,0,0,.75,0,0)" stroke-width=".48" stroke-linecap="butt" stroke-miterlimit="10" stroke-linejoin="miter" fill="none" stroke="#000000" d="M 58.72 395.04 L 78.88 395.04 "/>
<path transform="matrix(.75,0,0,.75,0,0)" stroke-width=".48" stroke-linecap="butt" stroke-miterlimit="10" stroke-linejoin="miter" fill="none" stroke="#000000" d="M 58.72 412.32 L 78.88 412.32 "/>
<path transform="matrix(.75,0,0,.75,0,0)" stroke-width=".48" stroke-linecap="butt" stroke-miterlimit="10" stroke-linejoin="miter" fill="none" stroke="#000000" d="M 916.96 422.56 L 928 422.56 L 928 346.56 L 1034.4 346.56 L 1034.4 365.6 L 1019.84 365.6 "/>
<path transform="matrix(.75,0,0,.75,0,0)" stroke-width=".48" stroke-linecap="butt" stroke-miterlimit="10" stroke-linejoin="miter" fill="none" stroke="#000000" d="M 58.72 408.8 L 78.88 408.8 "/>
<path transform="matrix(.75,0,0,.75,0,0)" stroke-width=".48" stroke-linecap="butt" stroke-miterlimit="10" stroke-linejoin="miter" fill="none" stroke="#000000" d="M 784.64 376 L 800.96 376 "/>
<path transform="matrix(.75,0,0,.75,0,0)" stroke-width=".48" stroke-linecap="butt" stroke-miterlimit="10" stroke-linejoin="miter" fill="none" stroke="#000000" d="M 692.8 376 L 709.28 376 "/>
<path transform="matrix(.75,0,0,.75,0,0)" stroke-width=".48" stroke-linecap="butt" stroke-miterlimit="10" stroke-linejoin="miter" fill="none" stroke="#000000" d="M 600.96 376 L 617.44 376 "/>
<path transform="matrix(.75,0,0,.75,0,0)" stroke-width=".48" stroke-linecap="butt" stroke-miterlimit="10" stroke-linejoin="miter" fill="none" stroke="#000000" d="M 854.08 376 L 861.44 376 L 861.44 467.52 L 877.44 467.52 "/>
<path transform="matrix(.75,0,0,.75,0,0)" stroke-width=".48" stroke-linecap="butt" stroke-miterlimit="10" stroke-linejoin="miter" fill="none" stroke="#000000" d="M 762.24 376 L 778.72 376 "/>
<path transform="matrix(.75,0,0,.75,0,0)" stroke-width=".48" stroke-linecap="butt" stroke-miterlimit="10" stroke-linejoin="miter" fill="none" stroke="#000000" d="M 670.4 376 L 686.88 376 "/>
<path transform="matrix(.75,0,0,.75,732.72006,324.72)" stroke-width=".48" stroke-linecap="butt" stroke-miterlimit="10" stroke-linejoin="miter" fill="none" stroke="#000000" d="M 0 0 L -5.76 0 L -5.76 1.76 L -35.04 1.76 L -35.04 -82.88 L 53.92 -82.88 L 53.92 -64 L 42.88 -64 "/>
<path transform="matrix(.75,0,0,.75,0,0)" d="M 941.44 425.6 L 942.56 425.6 L 942.56 426.72 L 941.44 426.72 Z "/>
<path transform="matrix(.75,0,0,.75,0,0)" stroke-width=".48" stroke-linecap="butt" stroke-miterlimit="10" stroke-linejoin="miter" fill="none" stroke="#000000" d="M 916.96 426.08 L 941.92 426.08 "/>
<path transform="matrix(.75,0,0,.75,0,0)" stroke-width=".48" stroke-linecap="butt" stroke-miterlimit="10" stroke-linejoin="miter" fill="none" stroke="#000000" d="M 976.96 429.6 L 969.6 429.6 L 969.6 388 L 1041.28 388 L 1041.28 372.48 L 1019.84 372.48 "/>
<path transform="matrix(.75,0,0,.75,0,0)" d="M 969.12 429.12 L 970.24 429.12 L 970.24 430.24 L 969.12 430.24 Z "/>
<path transform="matrix(.75,0,0,.75,0,0)" stroke-width=".48" stroke-linecap="butt" stroke-miterlimit="10" stroke-linejoin="miter" fill="none" stroke="#000000" d="M 916.96 429.6 L 969.6 429.6 "/>
<path transform="matrix(.75,0,0,.75,0,0)" stroke-width=".48" stroke-linecap="butt" stroke-miterlimit="10" stroke-linejoin="miter" fill="none" stroke="#000000" d="M 916.96 432.96 L 945.28 432.96 L 945.28 391.52 L 1037.76 391.52 L 1037.76 376 L 1019.84 376 "/>
<path transform="matrix(.75,0,0,.75,0,0)" d="M 944.8 425.6 L 945.92 425.6 L 945.92 426.72 L 944.8 426.72 Z "/>
<path transform="matrix(.75,0,0,.75,0,0)" stroke-width=".48" stroke-linecap="butt" stroke-miterlimit="10" stroke-linejoin="miter" fill="none" stroke="#000000" d="M 945.28 426.08 L 976.96 426.08 "/>
<path transform="matrix(.75,0,0,.75,0,0)" stroke-width=".48" stroke-linecap="butt" stroke-miterlimit="10" stroke-linejoin="miter" fill="none" stroke="#000000" d="M 916.96 436.48 L 955.68 436.48 L 955.68 395.04 L 1034.4 395.04 L 1034.4 379.36 L 1019.84 379.36 "/>
<path transform="matrix(.75,0,0,.75,0,0)" d="M 955.2 422.08 L 956.32 422.08 L 956.32 423.2 L 955.2 423.2 Z "/>
<path transform="matrix(.75,0,0,.75,0,0)" stroke-width=".48" stroke-linecap="butt" stroke-miterlimit="10" stroke-linejoin="miter" fill="none" stroke="#000000" d="M 955.68 422.56 L 976.96 422.56 "/>
<path transform="matrix(.75,0,0,.75,0,0)" stroke-width=".48" stroke-linecap="butt" stroke-miterlimit="10" stroke-linejoin="miter" fill="none" stroke="#000000" d="M 99.04 415.68 L 115.36 415.68 "/>
<path transform="matrix(.75,0,0,.75,0,0)" stroke-width=".48" stroke-linecap="butt" stroke-miterlimit="10" stroke-linejoin="miter" fill="none" stroke="#000000" d="M 190.72 415.68 L 207.2 415.68 "/>
<path transform="matrix(.75,0,0,.75,0,0)" stroke-width=".48" stroke-linecap="butt" stroke-miterlimit="10" stroke-linejoin="miter" fill="none" stroke="#000000" d="M 282.56 415.68 L 299.04 415.68 "/>
<path transform="matrix(.75,0,0,.75,0,0)" stroke-width=".48" stroke-linecap="butt" stroke-miterlimit="10" stroke-linejoin="miter" fill="none" stroke="#000000" d="M 168.48 415.68 L 184.96 415.68 "/>
<path transform="matrix(.75,0,0,.75,0,0)" stroke-width=".48" stroke-linecap="butt" stroke-miterlimit="10" stroke-linejoin="miter" fill="none" stroke="#000000" d="M 260.32 415.68 L 276.64 415.68 "/>
<path transform="matrix(.75,0,0,.75,0,0)" stroke-width=".48" stroke-linecap="butt" stroke-miterlimit="10" stroke-linejoin="miter" fill="none" stroke="#000000" d="M 352 415.68 L 368.48 415.68 "/>
<path transform="matrix(.75,0,0,.75,0,0)" stroke-width=".48" stroke-linecap="butt" stroke-miterlimit="10" stroke-linejoin="miter" fill="none" stroke="#000000" d="M 58.72 405.28 L 78.88 405.28 "/>
<path transform="matrix(.75,0,0,.75,0,0)" stroke-width=".48" stroke-linecap="butt" stroke-miterlimit="10" stroke-linejoin="miter" fill="none" stroke="#000000" d="M 573.6 389.76 L 586.08 389.76 L 586.08 376 L 595.04 376 "/>
<path transform="matrix(.75,0,0,.75,0,0)" stroke-width=".48" stroke-linecap="butt" stroke-miterlimit="10" stroke-linejoin="miter" fill="none" stroke="#000000" d="M 58.72 415.68 L 93.12 415.68 "/>
<path transform="matrix(.75,0,0,.75,0,0)" stroke-width=".48" stroke-linecap="butt" stroke-miterlimit="10" stroke-linejoin="miter" fill="none" stroke="#000000" d="M 883.2 467.52 L 952.32 467.52 L 952.32 376 L 976.96 376 "/>
<path transform="matrix(.75,0,0,.75,0,0)" stroke-width=".48" stroke-linecap="butt" stroke-miterlimit="10" stroke-linejoin="miter" fill="none" stroke="#000000" d="M 374.4 415.68 L 383.36 415.68 L 383.36 393.28 L 392.32 393.28 "/>
<path transform="matrix(.75,0,0,.75,0,0)" stroke-width=".48" stroke-linecap="butt" stroke-miterlimit="10" stroke-linejoin="miter" fill="none" stroke="#000000" d="M 417.28 401.92 L 433.76 401.92 L 433.76 417.44 L 511.04 417.44 L 511.04 395.04 L 520.8 395.04 "/>
<path transform="matrix(.75,0,0,.75,0,0)" stroke-width=".48" stroke-linecap="butt" stroke-miterlimit="10" stroke-linejoin="miter" fill="none" stroke="#000000" d="M 548 389.76 L 567.84 389.76 "/>
<path transform="matrix(.75,0,0,.75,0,0)" stroke-width=".48" stroke-linecap="butt" stroke-miterlimit="10" stroke-linejoin="miter" fill="none" stroke="#000000" d="M 417.28 405.28 L 451.68 405.28 "/>
<path transform="matrix(.75,0,0,.75,0,0)" stroke-width=".48" stroke-linecap="butt" stroke-miterlimit="10" stroke-linejoin="miter" fill="none" stroke="#000000" d="M 398.24 393.28 L 437.28 393.28 L 437.28 401.92 L 451.68 401.92 "/>
</g>
</svg>
