<?xml version="1.0" encoding="UTF-8" standalone="no"?>
<!DOCTYPE svg PUBLIC "-//W3C//DTD SVG 1.1//EN" "http://www.w3.org/Graphics/SVG/1.1/DTD/svg11.dtd">
<svg xmlns="http://www.w3.org/2000/svg" xmlns:xlink="http://www.w3.org/1999/xlink" version="1.1" width="792pt" height="612pt" viewBox="0 0 792 612">
<g enable-background="new">
<path transform="matrix(.75,0,0,.75,0,0)" stroke-width=".16" stroke-linecap="butt" stroke-dasharray=".48,.16" stroke-miterlimit="10" stroke-linejoin="miter" fill="none" stroke="#000000" d="M 22.24 398.4 L 119.84 398.4 L 119.84 412.16 L 22.24 412.16 L 22.24 398.4 "/>
<text xml:space="preserve" transform="matrix(.75 0 0 .75 0 0)" font-size="3.84729" font-family="F1"><tspan y="406.72" x="22.88 25.111428 27.188965 28.304678 30.382216 32.498228 33.61394 35.69148 37.769018 39.846555 42.077985 44.00163 46.079168 48.310598 50.388135 52.46567 54.581686 55.86286 57.940397 60.171827 62.249364 64.173007 66.25054 68.48197">data_to_encode_or_decode</tspan></text>
<text xml:space="preserve" transform="matrix(.75 0 0 .75 0 0)" font-size="3.36638" font-family="F1"><tspan y="404.32" x="12.96 14.878837 15.521539 17.272057 18.887919">8'hxx</tspan></text>
<path transform="matrix(.75,0,0,.75,0,0)" stroke-width=".64" stroke-linecap="butt" stroke-dasharray="1.92,.64" stroke-miterlimit="10" stroke-linejoin="miter" fill="none" stroke="#000000" d="M 18.08 405.28 L 22.24 405.28 "/>
<text xml:space="preserve" transform="matrix(.75 0 0 .75 0 0)" font-size="3.84729" font-family="F1"><tspan y="406.72" x="72.32 74.39754 76.62897 78.55261 80.63015 82.90005 84.977588 87.209018 89.28655 91.36409 92.64527 94.72281 96.95424 99.03178 100.95542 103.03296 105.30286 107.380397 109.611827 111.68936 113.92079 115.99833 117.114048">encoded_or_decoded_data</tspan></text>
<text xml:space="preserve" transform="matrix(.75 0 0 .75 0 0)" font-size="3.36638" font-family="F1"><tspan y="404.32" x="121.6 123.51883 124.16153 125.91204 127.5279">8'hxx</tspan></text>
<text xml:space="preserve" transform="matrix(.75 0 0 .75 0 0)" font-size="4.4885" font-family="F1"><tspan y="397.44" x="54.4 56.778909 59.382238 60.32482 62.703729 64.947978 66.24964 68.80808 71.18699 73.74543 75.98968 78.41347 80.97191 83.350818 84.78713">object_encoder1</tspan></text>
<path transform="matrix(.75,0,0,.75,0,0)" stroke-width=".64" stroke-linecap="butt" stroke-dasharray="1.92,.64" stroke-miterlimit="10" stroke-linejoin="miter" fill="none" stroke="#000000" d="M 124 405.28 L 119.84 405.28 "/>
<path transform="matrix(.75,0,0,.75,0,0)" stroke-width=".16" stroke-linecap="butt" stroke-dasharray=".48,.16" stroke-miterlimit="10" stroke-linejoin="miter" fill="none" stroke="#000000" d="M 205.44 398.4 L 303.04 398.4 L 303.04 412.16 L 205.44 412.16 L 205.44 398.4 "/>
<text xml:space="preserve" transform="matrix(.75 0 0 .75 0 0)" font-size="3.84729" font-family="F1"><tspan y="406.72" x="206.08 208.31143 210.38898 211.5047 213.58225 215.69826 216.81398 218.89153 220.96907 223.04662 225.27805 227.20169 229.27924 231.51067 233.58821 235.66576 237.78177 239.06295 241.14049 243.37192 245.44947 247.37311 249.45066 251.68209">data_to_encode_or_decode</tspan></text>
<text xml:space="preserve" transform="matrix(.75 0 0 .75 0 0)" font-size="3.36638" font-family="F1"><tspan y="404.32" x="196.16 198.07884 198.72156 200.47208 202.08795">8'hxx</tspan></text>
<path transform="matrix(.75,0,0,.75,0,0)" stroke-width=".64" stroke-linecap="butt" stroke-dasharray="1.92,.64" stroke-miterlimit="10" stroke-linejoin="miter" fill="none" stroke="#000000" d="M 201.28 405.28 L 205.44 405.28 "/>
<text xml:space="preserve" transform="matrix(.75 0 0 .75 0 0)" font-size="3.84729" font-family="F1"><tspan y="406.72" x="255.52 257.59754 259.82899 261.75263 263.83018 266.10008 268.1776 270.40907 272.4866 274.56416 275.84535 277.92289 280.15434 282.23188 284.15553 286.23307 288.50297 290.5805 292.81196 294.8895 297.12095 299.1985 300.3142">encoded_or_decoded_data</tspan></text>
<text xml:space="preserve" transform="matrix(.75 0 0 .75 0 0)" font-size="3.36638" font-family="F1"><tspan y="404.32" x="304.8 306.7188 307.3615 309.11204 310.7279">8'hxx</tspan></text>
<text xml:space="preserve" transform="matrix(.75 0 0 .75 0 0)" font-size="4.4885" font-family="F1"><tspan y="397.44" x="237.6 239.97891 242.58225 243.52483 245.90373 248.14798 249.44965 252.00809 254.387 256.94544 259.1897 261.6135 264.17195 266.55085 267.98716">object_encoder2</tspan></text>
<path transform="matrix(.75,0,0,.75,0,0)" stroke-width=".64" stroke-linecap="butt" stroke-dasharray="1.92,.64" stroke-miterlimit="10" stroke-linejoin="miter" fill="none" stroke="#000000" d="M 307.2 405.28 L 303.04 405.28 "/>
<path transform="matrix(.75,0,0,.75,0,0)" stroke-width=".16" stroke-linecap="butt" stroke-dasharray=".48,.16" stroke-miterlimit="10" stroke-linejoin="miter" fill="none" stroke="#000000" d="M 388.64 398.4 L 486.24 398.4 L 486.24 412.16 L 388.64 412.16 L 388.64 398.4 "/>
<text xml:space="preserve" transform="matrix(.75 0 0 .75 0 0)" font-size="3.84729" font-family="F1"><tspan y="406.72" x="389.28 391.51145 393.589 394.7047 396.78227 398.8983 400.014 402.09156 404.1691 406.24665 408.4781 410.40174 412.47929 414.71073 416.78828 418.8658 420.98185 422.26304 424.34059 426.57203 428.64958 430.5732 432.65077 434.8822">data_to_encode_or_decode</tspan></text>
<text xml:space="preserve" transform="matrix(.75 0 0 .75 0 0)" font-size="3.36638" font-family="F1"><tspan y="404.32" x="379.36 381.2788 381.9215 383.67204 385.2879">8'hxx</tspan></text>
<path transform="matrix(.75,0,0,.75,0,0)" stroke-width=".64" stroke-linecap="butt" stroke-dasharray="1.92,.64" stroke-miterlimit="10" stroke-linejoin="miter" fill="none" stroke="#000000" d="M 384.48 405.28 L 388.64 405.28 "/>
<text xml:space="preserve" transform="matrix(.75 0 0 .75 0 0)" font-size="3.84729" font-family="F1"><tspan y="406.72" x="438.72 440.79756 443.029 444.95265 447.03019 449.30009 451.37763 453.60908 455.6866 457.76417 459.04536 461.1229 463.35435 465.4319 467.35554 469.43309 471.70298 473.78053 476.01197 478.0895 480.32096 482.3985 483.51423">encoded_or_decoded_data</tspan></text>
<text xml:space="preserve" transform="matrix(.75 0 0 .75 0 0)" font-size="3.36638" font-family="F1"><tspan y="404.32" x="488 489.91883 490.56153 492.31205 493.92793">8'hxx</tspan></text>
<text xml:space="preserve" transform="matrix(.75 0 0 .75 0 0)" font-size="4.4885" font-family="F1"><tspan y="397.44" x="420.8 423.1789 425.78224 426.72483 429.10374 431.348 432.64967 435.2081 437.587 440.14546 442.3897 444.8135 447.37196 449.75086 451.18717">object_encoder3</tspan></text>
<path transform="matrix(.75,0,0,.75,0,0)" stroke-width=".64" stroke-linecap="butt" stroke-dasharray="1.92,.64" stroke-miterlimit="10" stroke-linejoin="miter" fill="none" stroke="#000000" d="M 490.56 405.28 L 486.24 405.28 "/>
<path transform="matrix(.75,0,0,.75,0,0)" stroke-width=".16" stroke-linecap="butt" stroke-dasharray=".48,.16" stroke-miterlimit="10" stroke-linejoin="miter" fill="none" stroke="#000000" d="M 572 398.4 L 669.6 398.4 L 669.6 412.16 L 572 412.16 L 572 398.4 "/>
<text xml:space="preserve" transform="matrix(.75 0 0 .75 0 0)" font-size="3.84729" font-family="F1"><tspan y="406.72" x="572.64 574.87149 576.949 578.06466 580.14218 582.2582 583.37387 585.45138 587.5289 589.6064 591.8378 593.7615 595.839 598.07046 600.14797 602.22549 604.3415 605.6226 607.70016 609.9316 612.0091 613.93276 616.01028 618.2417">data_to_encode_or_decode</tspan></text>
<text xml:space="preserve" transform="matrix(.75 0 0 .75 0 0)" font-size="3.36638" font-family="F1"><tspan y="404.32" x="562.72 564.6388 565.2815 567.032 568.6478">8'hxx</tspan></text>
<path transform="matrix(.75,0,0,.75,0,0)" stroke-width=".64" stroke-linecap="butt" stroke-dasharray="1.92,.64" stroke-miterlimit="10" stroke-linejoin="miter" fill="none" stroke="#000000" d="M 567.84 405.28 L 572 405.28 "/>
<text xml:space="preserve" transform="matrix(.75 0 0 .75 0 0)" font-size="3.84729" font-family="F1"><tspan y="406.72" x="622.08 624.15756 626.389 628.3126 630.39016 632.66006 634.73757 636.969 639.0465 641.124 642.40518 644.48269 646.7141 648.7916 650.7153 652.7928 655.0627 657.1402 659.37167 661.44918 663.6806 665.7581 666.8738">encoded_or_decoded_data</tspan></text>
<text xml:space="preserve" transform="matrix(.75 0 0 .75 0 0)" font-size="3.36638" font-family="F1"><tspan y="404.32" x="671.36 673.2788 673.9215 675.672 677.28787">8'hxx</tspan></text>
<text xml:space="preserve" transform="matrix(.75 0 0 .75 0 0)" font-size="4.4885" font-family="F1"><tspan y="397.44" x="604.16 606.5389 609.1422 610.08486 612.46377 614.708 616.00967 618.5681 621.1266 623.5055 625.74978 628.1735 630.732 633.1109 634.54727">object_decoder3</tspan></text>
<path transform="matrix(.75,0,0,.75,0,0)" stroke-width=".64" stroke-linecap="butt" stroke-dasharray="1.92,.64" stroke-miterlimit="10" stroke-linejoin="miter" fill="none" stroke="#000000" d="M 673.76 405.28 L 669.6 405.28 "/>
<path transform="matrix(.75,0,0,.75,0,0)" stroke-width=".16" stroke-linecap="butt" stroke-dasharray=".48,.16" stroke-miterlimit="10" stroke-linejoin="miter" fill="none" stroke="#000000" d="M 755.2 398.4 L 852.8 398.4 L 852.8 412.16 L 755.2 412.16 L 755.2 398.4 "/>
<text xml:space="preserve" transform="matrix(.75 0 0 .75 0 0)" font-size="3.84729" font-family="F1"><tspan y="406.72" x="755.84 758.0715 760.149 761.26467 763.34219 765.4582 766.57388 768.65139 770.7289 772.8064 775.03787 776.9615 779.039 781.27047 783.34799 785.4255 787.5415 788.82266 790.90017 793.1316 795.2091 797.13278 799.21029 801.4417">data_to_encode_or_decode</tspan></text>
<text xml:space="preserve" transform="matrix(.75 0 0 .75 0 0)" font-size="3.36638" font-family="F1"><tspan y="404.32" x="745.92 747.8388 748.4815 750.232 751.84786">8'hxx</tspan></text>
<path transform="matrix(.75,0,0,.75,0,0)" stroke-width=".64" stroke-linecap="butt" stroke-dasharray="1.92,.64" stroke-miterlimit="10" stroke-linejoin="miter" fill="none" stroke="#000000" d="M 751.04 405.28 L 755.2 405.28 "/>
<text xml:space="preserve" transform="matrix(.75 0 0 .75 0 0)" font-size="3.84729" font-family="F1"><tspan y="406.72" x="805.28 807.35757 809.589 811.51266 813.59017 815.86007 817.93759 820.169 822.2465 824.32406 825.60519 827.6827 829.9141 831.99166 833.9153 835.9928 838.2627 840.3402 842.57168 844.6492 846.8806 848.9581 850.0738">encoded_or_decoded_data</tspan></text>
<text xml:space="preserve" transform="matrix(.75 0 0 .75 0 0)" font-size="3.36638" font-family="F1"><tspan y="404.32" x="854.56 856.4788 857.1215 858.872 860.48788">8'hxx</tspan></text>
<text xml:space="preserve" transform="matrix(.75 0 0 .75 0 0)" font-size="4.4885" font-family="F1"><tspan y="397.44" x="787.36 789.7389 792.3422 793.28488 795.66378 797.908 799.20968 801.7681 804.3266 806.7055 808.94979 811.37356 813.932 816.3109 817.74728">object_decoder2</tspan></text>
<path transform="matrix(.75,0,0,.75,0,0)" stroke-width=".64" stroke-linecap="butt" stroke-dasharray="1.92,.64" stroke-miterlimit="10" stroke-linejoin="miter" fill="none" stroke="#000000" d="M 856.96 405.28 L 852.8 405.28 "/>
<path transform="matrix(.75,0,0,.75,0,0)" stroke-width=".16" stroke-linecap="butt" stroke-dasharray=".48,.16" stroke-miterlimit="10" stroke-linejoin="miter" fill="none" stroke="#000000" d="M 938.4 398.4 L 1036 398.4 L 1036 412.16 L 938.4 412.16 L 938.4 398.4 "/>
<text xml:space="preserve" transform="matrix(.75 0 0 .75 0 0)" font-size="3.84729" font-family="F1"><tspan y="406.72" x="939.04 941.2714 943.34896 944.4646 946.5421 948.65817 949.7738 951.8513 953.92886 956.00637 958.2378 960.16146 962.23898 964.4704 966.5479 968.6254 970.74148 972.0226 974.1001 976.33157 978.40908 980.3327 982.4102 984.64169">data_to_encode_or_decode</tspan></text>
<text xml:space="preserve" transform="matrix(.75 0 0 .75 0 0)" font-size="3.36638" font-family="F1"><tspan y="404.32" x="929.12 931.0388 931.6815 933.432 935.04788">8'hxx</tspan></text>
<path transform="matrix(.75,0,0,.75,0,0)" stroke-width=".64" stroke-linecap="butt" stroke-dasharray="1.92,.64" stroke-miterlimit="10" stroke-linejoin="miter" fill="none" stroke="#000000" d="M 934.24 405.28 L 938.4 405.28 "/>
<text xml:space="preserve" transform="matrix(.75 0 0 .75 0 0)" font-size="3.84729" font-family="F1"><tspan y="406.72" x="988.48 990.5575 992.78897 994.7126 996.7901 999.06 1001.1375 1003.36898 1005.4465 1007.524 1008.8051 1010.8826 1013.1141 1015.1916 1017.11526 1019.19277 1021.46267 1023.54019 1025.7715 1027.849 1030.0803 1032.1578 1033.2736">encoded_or_decoded_data</tspan></text>
<text xml:space="preserve" transform="matrix(.75 0 0 .75 0 0)" font-size="3.36638" font-family="F1"><tspan y="404.32" x="1037.76 1039.6788 1040.3215 1042.072 1043.6879">8'hxx</tspan></text>
<text xml:space="preserve" transform="matrix(.75 0 0 .75 0 0)" font-size="4.4885" font-family="F1"><tspan y="397.44" x="970.56 972.9389 975.54226 976.48489 978.8638 981.10806 982.40969 984.96817 987.5266 989.9055 992.1498 994.57357 997.132 999.5109 1000.94729">object_decoder1</tspan></text>
<path transform="matrix(.75,0,0,.75,0,0)" stroke-width=".64" stroke-linecap="butt" stroke-dasharray="1.92,.64" stroke-miterlimit="10" stroke-linejoin="miter" fill="none" stroke="#000000" d="M 1040.16 405.28 L 1036 405.28 "/>
<path transform="matrix(.75,0,0,.75,0,0)" stroke-width=".5" stroke-linecap="round" stroke-linejoin="round" fill="none" stroke="#000000" d="M 893.92 405.28 L 895.68 403.52 L 897.44 405.28 L 895.68 407.04 L 893.92 405.28 "/>
<path transform="matrix(.75,0,0,.75,0,0)" stroke-width=".5" stroke-linecap="round" stroke-linejoin="round" fill="none" stroke="#000000" d="M 897.44 405.28 L 901.6 405.28 "/>
<path transform="matrix(.75,0,0,.75,0,0)" stroke-width=".5" stroke-linecap="round" stroke-linejoin="round" fill="none" stroke="#000000" d="M 893.92 405.28 L 889.76 405.28 "/>
<text xml:space="preserve" transform="matrix(.75 0 0 .75 0 0)" font-size="3.36638" font-family="F1"><tspan y="404.32" x="902.24 904.1588 904.8015 906.552 908.16787">8'hxx</tspan></text>
<path transform="matrix(.75,0,0,.75,0,0)" stroke-width=".64" stroke-linecap="butt" stroke-miterlimit="10" stroke-linejoin="miter" fill="none" stroke="#000000" d="M 901.44 405.28 L 897.44 405.28 "/>
<text xml:space="preserve" transform="matrix(.75 0 0 .75 0 0)" font-size="3.36638" font-family="F1"><tspan y="404.32" x="881.6 883.5188 884.1615 885.912 887.52786">8'hxx</tspan></text>
<path transform="matrix(.75,0,0,.75,0,0)" stroke-width=".64" stroke-linecap="butt" stroke-miterlimit="10" stroke-linejoin="miter" fill="none" stroke="#000000" d="M 889.76 405.28 L 893.92 405.28 "/>
<path transform="matrix(.75,0,0,.75,0,0)" stroke-width=".5" stroke-linecap="round" stroke-linejoin="round" fill="none" stroke="#000000" d="M 710.56 405.28 L 712.32 403.52 L 714.08 405.28 L 712.32 407.04 L 710.56 405.28 "/>
<path transform="matrix(.75,0,0,.75,0,0)" stroke-width=".5" stroke-linecap="round" stroke-linejoin="round" fill="none" stroke="#000000" d="M 714.08 405.28 L 718.24 405.28 "/>
<path transform="matrix(.75,0,0,.75,0,0)" stroke-width=".5" stroke-linecap="round" stroke-linejoin="round" fill="none" stroke="#000000" d="M 710.56 405.28 L 706.4 405.28 "/>
<text xml:space="preserve" transform="matrix(.75 0 0 .75 0 0)" font-size="3.36638" font-family="F1"><tspan y="404.32" x="718.88 720.7988 721.4415 723.192 724.80789">8'hxx</tspan></text>
<path transform="matrix(.75,0,0,.75,0,0)" stroke-width=".64" stroke-linecap="butt" stroke-miterlimit="10" stroke-linejoin="miter" fill="none" stroke="#000000" d="M 718.24 405.28 L 714.08 405.28 "/>
<text xml:space="preserve" transform="matrix(.75 0 0 .75 0 0)" font-size="3.36638" font-family="F1"><tspan y="404.32" x="698.24 700.1588 700.8015 702.552 704.16787">8'hxx</tspan></text>
<path transform="matrix(.75,0,0,.75,0,0)" stroke-width=".64" stroke-linecap="butt" stroke-miterlimit="10" stroke-linejoin="miter" fill="none" stroke="#000000" d="M 706.56 405.28 L 710.56 405.28 "/>
<path transform="matrix(.75,0,0,.75,0,0)" stroke-width=".5" stroke-linecap="round" stroke-linejoin="round" fill="none" stroke="#000000" d="M 527.36 405.28 L 529.12 403.52 L 530.88 405.28 L 529.12 407.04 L 527.36 405.28 "/>
<path transform="matrix(.75,0,0,.75,0,0)" stroke-width=".5" stroke-linecap="round" stroke-linejoin="round" fill="none" stroke="#000000" d="M 530.88 405.28 L 535.04 405.28 "/>
<path transform="matrix(.75,0,0,.75,0,0)" stroke-width=".5" stroke-linecap="round" stroke-linejoin="round" fill="none" stroke="#000000" d="M 527.36 405.28 L 523.2 405.28 "/>
<text xml:space="preserve" transform="matrix(.75 0 0 .75 0 0)" font-size="3.36638" font-family="F1"><tspan y="404.32" x="535.68 537.5988 538.2415 539.992 541.60787">8'hxx</tspan></text>
<path transform="matrix(.75,0,0,.75,0,0)" stroke-width=".64" stroke-linecap="butt" stroke-miterlimit="10" stroke-linejoin="miter" fill="none" stroke="#000000" d="M 535.04 405.28 L 530.88 405.28 "/>
<text xml:space="preserve" transform="matrix(.75 0 0 .75 0 0)" font-size="3.36638" font-family="F1"><tspan y="404.32" x="515.04 516.9588 517.6015 519.352 520.96786">8'hxx</tspan></text>
<path transform="matrix(.75,0,0,.75,0,0)" stroke-width=".64" stroke-linecap="butt" stroke-miterlimit="10" stroke-linejoin="miter" fill="none" stroke="#000000" d="M 523.2 405.28 L 527.36 405.28 "/>
<path transform="matrix(.75,0,0,.75,0,0)" stroke-width=".5" stroke-linecap="round" stroke-linejoin="round" fill="none" stroke="#000000" d="M 344.16 405.28 L 345.92 403.52 L 347.68 405.28 L 345.92 407.04 L 344.16 405.28 "/>
<path transform="matrix(.75,0,0,.75,0,0)" stroke-width=".5" stroke-linecap="round" stroke-linejoin="round" fill="none" stroke="#000000" d="M 347.68 405.28 L 351.84 405.28 "/>
<path transform="matrix(.75,0,0,.75,0,0)" stroke-width=".5" stroke-linecap="round" stroke-linejoin="round" fill="none" stroke="#000000" d="M 344.16 405.28 L 340 405.28 "/>
<text xml:space="preserve" transform="matrix(.75 0 0 .75 0 0)" font-size="3.36638" font-family="F1"><tspan y="404.32" x="352.48 354.39884 355.04154 356.79206 358.40794">8'hxx</tspan></text>
<path transform="matrix(.75,0,0,.75,0,0)" stroke-width=".64" stroke-linecap="butt" stroke-miterlimit="10" stroke-linejoin="miter" fill="none" stroke="#000000" d="M 351.68 405.28 L 347.68 405.28 "/>
<text xml:space="preserve" transform="matrix(.75 0 0 .75 0 0)" font-size="3.36638" font-family="F1"><tspan y="404.32" x="331.84 333.75883 334.40153 336.15205 337.7679">8'hxx</tspan></text>
<path transform="matrix(.75,0,0,.75,0,0)" stroke-width=".64" stroke-linecap="butt" stroke-miterlimit="10" stroke-linejoin="miter" fill="none" stroke="#000000" d="M 340 405.28 L 344.16 405.28 "/>
<path transform="matrix(.75,0,0,.75,0,0)" stroke-width=".5" stroke-linecap="round" stroke-linejoin="round" fill="none" stroke="#000000" d="M 160.96 405.28 L 162.72 403.52 L 164.48 405.28 L 162.72 407.04 L 160.96 405.28 "/>
<path transform="matrix(.75,0,0,.75,0,0)" stroke-width=".5" stroke-linecap="round" stroke-linejoin="round" fill="none" stroke="#000000" d="M 164.48 405.28 L 168.64 405.28 "/>
<path transform="matrix(.75,0,0,.75,0,0)" stroke-width=".5" stroke-linecap="round" stroke-linejoin="round" fill="none" stroke="#000000" d="M 160.96 405.28 L 156.8 405.28 "/>
<text xml:space="preserve" transform="matrix(.75 0 0 .75 0 0)" font-size="3.36638" font-family="F1"><tspan y="404.32" x="169.28 171.19884 171.84156 173.59207 175.20795">8'hxx</tspan></text>
<path transform="matrix(.75,0,0,.75,0,0)" stroke-width=".64" stroke-linecap="butt" stroke-miterlimit="10" stroke-linejoin="miter" fill="none" stroke="#000000" d="M 168.48 405.28 L 164.48 405.28 "/>
<text xml:space="preserve" transform="matrix(.75 0 0 .75 0 0)" font-size="3.36638" font-family="F1"><tspan y="404.32" x="148.64 150.55884 151.20156 152.95207 154.56795">8'hxx</tspan></text>
<path transform="matrix(.75,0,0,.75,0,0)" stroke-width=".64" stroke-linecap="butt" stroke-miterlimit="10" stroke-linejoin="miter" fill="none" stroke="#000000" d="M 156.8 405.28 L 160.96 405.28 "/>
<path transform="matrix(.75,0,0,.75,0,0)" stroke-width=".64" stroke-linecap="butt" stroke-miterlimit="10" stroke-linejoin="miter" fill="none" stroke="#000000" d="M 901.44 405.28 L 934.24 405.28 "/>
<path transform="matrix(.75,0,0,.75,0,0)" stroke-width=".64" stroke-linecap="butt" stroke-miterlimit="10" stroke-linejoin="miter" fill="none" stroke="#000000" d="M 718.24 405.28 L 751.04 405.28 "/>
<path transform="matrix(.75,0,0,.75,0,0)" stroke-width=".64" stroke-linecap="butt" stroke-miterlimit="10" stroke-linejoin="miter" fill="none" stroke="#000000" d="M 535.04 405.28 L 567.84 405.28 "/>
<clipPath id="cp0">
<path transform="matrix(.75,0,0,.75,0,0)" d="M 1035.36 400.48 L 1056 400.48 L 1056 410.24 L 1035.36 410.24 Z " fill-rule="evenodd"/>
</clipPath>
<g clip-path="url(#cp0)">
<path transform="matrix(.75,0,0,.75,0,0)" stroke-width=".64" stroke-linecap="butt" stroke-miterlimit="10" stroke-linejoin="miter" fill="none" stroke="#000000" d="M 1040.16 405.28 L 1072.96 405.28 "/>
</g>
<path transform="matrix(.75,0,0,.75,0,0)" stroke-width=".64" stroke-linecap="butt" stroke-miterlimit="10" stroke-linejoin="miter" fill="none" stroke="#000000" d="M 856.96 405.28 L 889.76 405.28 "/>
<path transform="matrix(.75,0,0,.75,0,0)" stroke-width=".64" stroke-linecap="butt" stroke-miterlimit="10" stroke-linejoin="miter" fill="none" stroke="#000000" d="M 673.76 405.28 L 706.56 405.28 "/>
<clipPath id="cp1">
<path transform="matrix(.75,0,0,.75,0,0)" d="M 0 400.48 L 23.04 400.48 L 23.04 410.24 L 0 410.24 Z " fill-rule="evenodd"/>
</clipPath>
<g clip-path="url(#cp1)">
<path transform="matrix(.75,0,0,.75,0,0)" stroke-width=".64" stroke-linecap="butt" stroke-miterlimit="10" stroke-linejoin="miter" fill="none" stroke="#000000" d="M -14.72 405.28 L 18.08 405.28 "/>
</g>
<path transform="matrix(.75,0,0,.75,0,0)" stroke-width=".64" stroke-linecap="butt" stroke-miterlimit="10" stroke-linejoin="miter" fill="none" stroke="#000000" d="M 168.48 405.28 L 201.28 405.28 "/>
<path transform="matrix(.75,0,0,.75,0,0)" stroke-width=".64" stroke-linecap="butt" stroke-miterlimit="10" stroke-linejoin="miter" fill="none" stroke="#000000" d="M 351.68 405.28 L 384.48 405.28 "/>
<path transform="matrix(.75,0,0,.75,0,0)" stroke-width=".64" stroke-linecap="butt" stroke-miterlimit="10" stroke-linejoin="miter" fill="none" stroke="#000000" d="M 124 405.28 L 156.8 405.28 "/>
<path transform="matrix(.75,0,0,.75,0,0)" stroke-width=".64" stroke-linecap="butt" stroke-miterlimit="10" stroke-linejoin="miter" fill="none" stroke="#000000" d="M 307.2 405.28 L 340 405.28 "/>
<path transform="matrix(.75,0,0,.75,0,0)" stroke-width=".64" stroke-linecap="butt" stroke-miterlimit="10" stroke-linejoin="miter" fill="none" stroke="#000000" d="M 490.56 405.28 L 523.2 405.28 "/>
</g>
</svg>
