<?xml version="1.0" standalone="no"?>
<!DOCTYPE svg PUBLIC "-//W3C//DTD SVG 1.1//EN" "https://www.w3.org/Graphics/SVG/1.1/DTD/svg11.dtd">

<svg width="800" height="600" version="1.1" xmlns="http://www.w3.org/2000/svg">
	<ellipse stroke="black" stroke-width="1" fill="none" cx="150.5" cy="101.5" rx="30" ry="30"/>
	<text x="94.5" y="107.5" font-family="Times New Roman" font-size="20">Receive MSB</text>
	<ellipse stroke="black" stroke-width="1" fill="none" cx="358.5" cy="101.5" rx="30" ry="30"/>
	<text x="305.5" y="107.5" font-family="Times New Roman" font-size="20">Receive LSB</text>
	<ellipse stroke="black" stroke-width="1" fill="none" cx="150.5" cy="326.5" rx="30" ry="30"/>
	<text x="133.5" y="332.5" font-family="Times New Roman" font-size="20">wait</text>
	<ellipse stroke="black" stroke-width="1" fill="none" cx="358.5" cy="326.5" rx="30" ry="30"/>
	<text x="326.5" y="332.5" font-family="Times New Roman" font-size="20">Tx_WR</text>
	<ellipse stroke="black" stroke-width="1" fill="none" cx="551.5" cy="326.5" rx="30" ry="30"/>
	<text x="537.5" y="332.5" font-family="Times New Roman" font-size="20">end</text>
	<path stroke="black" stroke-width="1" fill="none" d="M 171.773,80.436 A 133.533,133.533 0 0 1 337.227,80.436"/>
	<polygon fill="black" stroke-width="1" points="337.227,80.436 334.045,71.555 327.85,79.405"/>
	<text x="165.5" y="42.5" font-family="Times New Roman" font-size="20">Rx_Valid or Rx_Error</text>
	<path stroke="black" stroke-width="1" fill="none" d="M 338.836,124.062 A 125.807,125.807 0 0 1 170.164,124.062"/>
	<polygon fill="black" stroke-width="1" points="170.164,124.062 172.749,133.135 179.452,125.715"/>
	<text x="165.5" y="177.5" font-family="Times New Roman" font-size="20">Rx_Valid or Rx_Error</text>
	<path stroke="black" stroke-width="1" fill="none" d="M 171.966,305.631 A 134.634,134.634 0 0 1 337.034,305.631"/>
	<polygon fill="black" stroke-width="1" points="337.034,305.631 333.779,296.777 327.649,304.677"/>
	<text x="212.5" y="268.5" font-family="Times New Roman" font-size="20">~Tx_Busy</text>
	<path stroke="black" stroke-width="1" fill="none" d="M 342.125,351.536 A 115.46,115.46 0 0 1 166.875,351.536"/>
	<polygon fill="black" stroke-width="1" points="166.875,351.536 168.29,360.863 175.879,354.352"/>
	<text x="216.5" y="412.5" font-family="Times New Roman" font-size="20">~finished</text>
	<polygon stroke="black" stroke-width="1" points="388.5,326.5 521.5,326.5"/>
	<polygon fill="black" stroke-width="1" points="521.5,326.5 513.5,321.5 513.5,331.5"/>
	<text x="422.5" y="317.5" font-family="Times New Roman" font-size="20">finished</text>
</svg>
